<mxfile host="app.diagrams.net" agent="Mozilla/5.0 (Windows NT 10.0; Win64; x64) AppleWebKit/537.36 (KHTML, like Gecko) Chrome/128.0.0.0 Safari/537.36" version="24.7.7" pages="2">
  <diagram name="第 1 页" id="2wDgunJSM1_vk-2596V4">
    <mxGraphModel dx="2261" dy="738" grid="1" gridSize="10" guides="1" tooltips="1" connect="1" arrows="1" fold="1" page="1" pageScale="1" pageWidth="827" pageHeight="1169" math="0" shadow="0">
      <root>
        <mxCell id="0" />
        <mxCell id="1" parent="0" />
        <mxCell id="wSYW7BnZfOBYV7A0cvDg-4" value="" style="rounded=0;whiteSpace=wrap;html=1;" parent="1" vertex="1">
          <mxGeometry x="400" y="220" width="168.57" height="190" as="geometry" />
        </mxCell>
        <mxCell id="wSYW7BnZfOBYV7A0cvDg-3" value="" style="rounded=0;whiteSpace=wrap;html=1;" parent="1" vertex="1">
          <mxGeometry x="61.43" y="220" width="168.57" height="190" as="geometry" />
        </mxCell>
        <mxCell id="wSYW7BnZfOBYV7A0cvDg-1" value="" style="image;sketch=0;aspect=fixed;html=1;points=[];align=center;fontSize=12;image=img/lib/mscae/Cache_Redis_Product.svg;" parent="1" vertex="1">
          <mxGeometry x="110" y="270" width="71.43" height="60" as="geometry" />
        </mxCell>
        <mxCell id="wSYW7BnZfOBYV7A0cvDg-2" value="" style="image;sketch=0;aspect=fixed;html=1;points=[];align=center;fontSize=12;image=img/lib/mscae/Cache_Redis_Product.svg;" parent="1" vertex="1">
          <mxGeometry x="450" y="270" width="71.43" height="60" as="geometry" />
        </mxCell>
        <mxCell id="wSYW7BnZfOBYV7A0cvDg-13" style="edgeStyle=orthogonalEdgeStyle;rounded=0;orthogonalLoop=1;jettySize=auto;html=1;" parent="1" source="wSYW7BnZfOBYV7A0cvDg-5" target="wSYW7BnZfOBYV7A0cvDg-1" edge="1">
          <mxGeometry relative="1" as="geometry" />
        </mxCell>
        <mxCell id="wSYW7BnZfOBYV7A0cvDg-5" value="Good Cloud" style="text;html=1;align=center;verticalAlign=middle;whiteSpace=wrap;rounded=0;" parent="1" vertex="1">
          <mxGeometry x="100.72" y="450" width="90" height="30" as="geometry" />
        </mxCell>
        <mxCell id="wSYW7BnZfOBYV7A0cvDg-15" style="edgeStyle=orthogonalEdgeStyle;rounded=0;orthogonalLoop=1;jettySize=auto;html=1;" parent="1" source="wSYW7BnZfOBYV7A0cvDg-6" target="wSYW7BnZfOBYV7A0cvDg-2" edge="1">
          <mxGeometry relative="1" as="geometry" />
        </mxCell>
        <mxCell id="wSYW7BnZfOBYV7A0cvDg-6" value="AstroWarp" style="text;html=1;align=center;verticalAlign=middle;whiteSpace=wrap;rounded=0;" parent="1" vertex="1">
          <mxGeometry x="440.71999999999997" y="450" width="90" height="30" as="geometry" />
        </mxCell>
        <mxCell id="wSYW7BnZfOBYV7A0cvDg-7" value="" style="endArrow=classic;html=1;rounded=0;" parent="1" target="wSYW7BnZfOBYV7A0cvDg-2" edge="1">
          <mxGeometry width="50" height="50" relative="1" as="geometry">
            <mxPoint x="180" y="300" as="sourcePoint" />
            <mxPoint x="230" y="250" as="targetPoint" />
          </mxGeometry>
        </mxCell>
        <mxCell id="wSYW7BnZfOBYV7A0cvDg-8" value="Sync" style="text;html=1;align=center;verticalAlign=middle;whiteSpace=wrap;rounded=0;" parent="1" vertex="1">
          <mxGeometry x="280" y="276" width="60" height="30" as="geometry" />
        </mxCell>
        <mxCell id="wSYW7BnZfOBYV7A0cvDg-9" value="master" style="text;html=1;align=center;verticalAlign=middle;whiteSpace=wrap;rounded=0;" parent="1" vertex="1">
          <mxGeometry x="115" y="246" width="60" height="30" as="geometry" />
        </mxCell>
        <mxCell id="wSYW7BnZfOBYV7A0cvDg-10" value="slave" style="text;html=1;align=center;verticalAlign=middle;whiteSpace=wrap;rounded=0;" parent="1" vertex="1">
          <mxGeometry x="453" y="246" width="60" height="30" as="geometry" />
        </mxCell>
        <mxCell id="wSYW7BnZfOBYV7A0cvDg-14" value="write/read" style="text;html=1;align=center;verticalAlign=middle;whiteSpace=wrap;rounded=0;" parent="1" vertex="1">
          <mxGeometry x="150.00000000000003" y="380" width="60" height="30" as="geometry" />
        </mxCell>
        <mxCell id="wSYW7BnZfOBYV7A0cvDg-16" value="write/read" style="text;html=1;align=center;verticalAlign=middle;whiteSpace=wrap;rounded=0;" parent="1" vertex="1">
          <mxGeometry x="490" y="380" width="60" height="30" as="geometry" />
        </mxCell>
        <mxCell id="SpbUqMqDVtltP27DDrxf-3" style="edgeStyle=orthogonalEdgeStyle;rounded=0;orthogonalLoop=1;jettySize=auto;html=1;entryX=0.5;entryY=1;entryDx=0;entryDy=0;" parent="1" edge="1">
          <mxGeometry relative="1" as="geometry">
            <mxPoint x="93" y="1039.9999999999998" as="sourcePoint" />
            <mxPoint x="93" y="860" as="targetPoint" />
          </mxGeometry>
        </mxCell>
        <mxCell id="SpbUqMqDVtltP27DDrxf-1" value="固件" style="rounded=1;whiteSpace=wrap;html=1;" parent="1" vertex="1">
          <mxGeometry x="50" y="1040" width="120" height="60" as="geometry" />
        </mxCell>
        <mxCell id="SpbUqMqDVtltP27DDrxf-4" style="edgeStyle=orthogonalEdgeStyle;rounded=0;orthogonalLoop=1;jettySize=auto;html=1;entryX=0.75;entryY=0;entryDx=0;entryDy=0;" parent="1" edge="1">
          <mxGeometry relative="1" as="geometry">
            <mxPoint x="123.0344827586207" y="860" as="sourcePoint" />
            <mxPoint x="123" y="1039.9999999999998" as="targetPoint" />
            <Array as="points">
              <mxPoint x="123" y="900" />
              <mxPoint x="123" y="900" />
            </Array>
          </mxGeometry>
        </mxCell>
        <mxCell id="SpbUqMqDVtltP27DDrxf-2" value="云平台" style="rounded=1;whiteSpace=wrap;html=1;" parent="1" vertex="1">
          <mxGeometry x="50" y="800" width="120" height="60" as="geometry" />
        </mxCell>
        <mxCell id="SpbUqMqDVtltP27DDrxf-5" value="event" style="text;html=1;align=center;verticalAlign=middle;whiteSpace=wrap;rounded=0;" parent="1" vertex="1">
          <mxGeometry x="20" y="910" width="60" height="30" as="geometry" />
        </mxCell>
        <mxCell id="SpbUqMqDVtltP27DDrxf-6" value="command" style="text;html=1;align=center;verticalAlign=middle;whiteSpace=wrap;rounded=0;" parent="1" vertex="1">
          <mxGeometry x="140" y="910" width="60" height="30" as="geometry" />
        </mxCell>
        <mxCell id="SpbUqMqDVtltP27DDrxf-12" value="1. 发消息 id&lt;div&gt;轮询有没有收到 同样 的一id的command消息，如果有的话，数据拿到。&lt;br&gt;&lt;div&gt;2. 收到command消息，msgId&lt;/div&gt;&lt;div&gt;3. 如果 id == msgID&lt;/div&gt;&lt;div&gt;4. 继续操作&lt;/div&gt;&lt;/div&gt;" style="ellipse;whiteSpace=wrap;html=1;" parent="1" vertex="1">
          <mxGeometry x="240" y="820" width="240" height="250" as="geometry" />
        </mxCell>
        <mxCell id="SpbUqMqDVtltP27DDrxf-19" style="edgeStyle=orthogonalEdgeStyle;rounded=0;orthogonalLoop=1;jettySize=auto;html=1;startArrow=classic;startFill=1;" parent="1" source="SpbUqMqDVtltP27DDrxf-16" target="SpbUqMqDVtltP27DDrxf-17" edge="1">
          <mxGeometry relative="1" as="geometry" />
        </mxCell>
        <mxCell id="SpbUqMqDVtltP27DDrxf-16" value="flowId" style="text;html=1;align=center;verticalAlign=middle;whiteSpace=wrap;rounded=0;" parent="1" vertex="1">
          <mxGeometry x="30" y="940" width="60" height="30" as="geometry" />
        </mxCell>
        <mxCell id="SpbUqMqDVtltP27DDrxf-17" value="msgId" style="text;html=1;align=center;verticalAlign=middle;whiteSpace=wrap;rounded=0;" parent="1" vertex="1">
          <mxGeometry x="130" y="940" width="60" height="30" as="geometry" />
        </mxCell>
        <mxCell id="HGs35L_VXP2M7L4PzfNw-3" value="" style="edgeStyle=orthogonalEdgeStyle;rounded=0;orthogonalLoop=1;jettySize=auto;html=1;" parent="1" source="HGs35L_VXP2M7L4PzfNw-1" target="HGs35L_VXP2M7L4PzfNw-2" edge="1">
          <mxGeometry relative="1" as="geometry" />
        </mxCell>
        <mxCell id="HGs35L_VXP2M7L4PzfNw-1" value="AstroWarp" style="rounded=0;whiteSpace=wrap;html=1;" parent="1" vertex="1">
          <mxGeometry x="120" y="1320" width="80" height="60" as="geometry" />
        </mxCell>
        <mxCell id="HGs35L_VXP2M7L4PzfNw-17" style="edgeStyle=orthogonalEdgeStyle;rounded=0;orthogonalLoop=1;jettySize=auto;html=1;" parent="1" source="HGs35L_VXP2M7L4PzfNw-2" edge="1">
          <mxGeometry relative="1" as="geometry">
            <mxPoint x="160" y="1460" as="targetPoint" />
          </mxGeometry>
        </mxCell>
        <mxCell id="HGs35L_VXP2M7L4PzfNw-2" value="生成二维码或Link URL" style="whiteSpace=wrap;html=1;rounded=0;" parent="1" vertex="1">
          <mxGeometry x="75" y="1410" width="170" height="30" as="geometry" />
        </mxCell>
        <mxCell id="HGs35L_VXP2M7L4PzfNw-13" style="edgeStyle=orthogonalEdgeStyle;rounded=0;orthogonalLoop=1;jettySize=auto;html=1;" parent="1" source="HGs35L_VXP2M7L4PzfNw-4" target="HGs35L_VXP2M7L4PzfNw-7" edge="1">
          <mxGeometry relative="1" as="geometry">
            <Array as="points">
              <mxPoint x="-60" y="1550" />
              <mxPoint x="-60" y="1512" />
            </Array>
          </mxGeometry>
        </mxCell>
        <mxCell id="HGs35L_VXP2M7L4PzfNw-15" value="扫码" style="edgeLabel;html=1;align=center;verticalAlign=middle;resizable=0;points=[];" parent="HGs35L_VXP2M7L4PzfNw-13" vertex="1" connectable="0">
          <mxGeometry x="0.2906" y="2" relative="1" as="geometry">
            <mxPoint as="offset" />
          </mxGeometry>
        </mxCell>
        <mxCell id="HGs35L_VXP2M7L4PzfNw-4" value="APP Client" style="rounded=0;whiteSpace=wrap;html=1;" parent="1" vertex="1">
          <mxGeometry x="-170" y="1530" width="80" height="40" as="geometry" />
        </mxCell>
        <mxCell id="HGs35L_VXP2M7L4PzfNw-18" style="edgeStyle=orthogonalEdgeStyle;rounded=0;orthogonalLoop=1;jettySize=auto;html=1;" parent="1" source="HGs35L_VXP2M7L4PzfNw-7" edge="1">
          <mxGeometry relative="1" as="geometry">
            <mxPoint x="270" y="1512" as="targetPoint" />
          </mxGeometry>
        </mxCell>
        <mxCell id="HGs35L_VXP2M7L4PzfNw-7" value="" style="shape=image;verticalLabelPosition=bottom;labelBackgroundColor=default;verticalAlign=top;aspect=fixed;imageAspect=0;image=data:image/png,iVBORw0KGgoAAAANSUhEUgAAAQ4AAAEMCAIAAAC6G8/5AAAgAElEQVR4Ae2dT2hV1/bHz7Omz9bQgVAaLC2kDhRUKPJAyEBaAu2gZJBBKCk4emJfKFihBaUP4SIPGlAoAQmG5+QNGoqDDKRQhPLUgSBIKaQFJzHQYrEUKthY05/Gnl/15O37PZ91z9733HujrV1nctfae+219/me9T37z9nn3Cz3wxFwBNpAIGvDxk0cAUcgd6p4EDgCbSHgVGkLJjdyBJwqHgOOQFsIOFXagsmNHAGniseAI9AWAk6VtmByI0egkir79+8felgHLsPc3Fytms+fP68ehoeHtfj+/fs199SpU5oLeXh4WI07kOEw7mFsbEztx8bG1N7ioLlWPnz4sHq7ffu22szPz2tul3ISKPjXllg5jkOe5zCA896qtnlFSiVVhoaGsod1oHHT09O1ap6bm1MP/f39WnxoaEhzG42G5kLu7+9X4w5kOIx72LJli9pv2bJF7S0Ommvl0dFR9ba0tKQ2Fy9e1Nwu5SRQ8K8tsXIchzzPYQDnvVVt84oUp0oJ52QEVOEY0kvuskp4C3tEgFOlQA84OFWaQRXirBDs3bRp2kryXqXAzXuVVtFROw3RGNTK254PwAJGtQRcmXhZ71UKfOI4/MF6lfglr5sLaOoWhz3upghWqI1GA8XjKm4ZMJ6bm4P/uDo9Pa0egIMdeKixleN1IRdzNusNKbUmdRYHeENj4qrFAUDBeZcqJrdV3trtVarKd5be2zN3qsQjr8h1qlTFqlOldfx4r1IVMUj3XgWAeK8CQKj6AKzlLQdLhT4Aa6LECOpO9wFYgR9wsGP0OMzNy9OG5AOwKjDXdgD23XffzbV9nD17Fq1EiCDXqvGqDhw4MFp97NmzRwPpzTffjHtD7tatW7U42nbp0iXUrMZW7nJaj7ah6s2bN9saQ8rWrVtR/O7duzgdVWsNwCwO6irPczR1cHAwNMwK9pYRD5jFxUWcWkTF3o48z9eWKrbDtSccUuqeOVDO8zy4ainguQqK9/YpNZxbtWULQ2KXVAl+CgG111reyLIMj/PhrRZVUDapTkxM4FxUrRswtR7E2d7VqbJ6vZwqGoUqO1WKEHGqOFWUFy1kp4pTZZUkxY/3Ki1Y8iDJqfKHp8qFCxcmykfVxS7SX3/99bJ5SXvvvfem5XjjjTfgTTKnP/roI+RCLbmemDh58mRePtSbHUP3dq6CxsTnyjiR5Fzl8uXLei4vvfSSesBicRmDtIa5ytGjR7Wujz/+GC7i03qLszYV8mM1V6l15gDCqoDGzlb1qiwtLVkPkZTR0VEtbmWU7S1V4LyuGu9VcC54vtRbqiwsLKA6qE6V1YsLXJwqACSodckQt3eqFMD+gaf1TpXADQjx0K+b61RxqpRixgdgJThEcao4VSQcssypUoJDFKfKH54qGHVYVS53CzEeAXZary6Ss1U1zrKs7rQexR+miluG3dCxpo2xF7FWik/rV69OLdSS+1ycKi2D3qlSwJLEoSoaO9yE/5D3gKH1LUMhJDpVAhQqJENEjXsu4wrWVb1XWb0idYGLX0inSkt8nCoFLEkcqqKxw17l7NmzW9o+Xn31VVQfv0nAOM/zhfLRMhRC4vz8vJpfu3ZNHU5NTaHhoWCWZQ95rvLiiy+iMXFVm5plGYw3btwIA1V37dqlsCwsLDz99NNqUEtet26d1j4wMBAvjqpv3rypFyUpxwPm448/1sbEZXyX0M7ZqhrTIVWq3LWZHj9z6yR+GeK59i4C/1r8IVMl+ZQ60tTMfGSs7iZ8PfG6MoCqNSDPsgy7FnCaVq0bMNZDJGVtH0FGKm4nq+6Z172Qau9UUTR6JTtVmnGOPT/NjF5ITpUiZL1XaTOa6gZMm24LM+9VVm+g3qv0qidRP96rNNnovUoTC5E0XLp/BOm9ikAbE/9IvUp8VaFubl9fn8YcQLILGlg/0bLFHFENsLCDXsWugGnZr776CufyxRdfaPNQtX1aj+LqfGFh4a233lIPoMo333yjxY8cOaJV22evyMW0HiuBp0+f1qqzLIMBcg8cOKCN37VrlxokexUtu7CwoGXttP7VV1/VE08umapx9/K6deu0eUA1qO2ugKmvnsuhNYVgdxbDAA3AZygw9ARV7MYWdW7fV7l48aIaoGpLFRho2TzP8UoTqIKQmpiYQPG4c1AFz5fs26AwgHN8WxCjjCRV4i3HChg6jeRnKNDU3qpoeVCdKiUEnCoh7JwqgSSFUAoUzcNdJCC4FoLWm+e59yoFyN6rhMBAt7MWQRh8hkohOFVKCHivEiLGe5V2qQK735UaLmdLAUNwjNERAcnzqtu7wmHLFoZEzFVQ1qqhYCHAAHMVGFsVQMEb1DgOds6G4qi97lwF3h6JWrqnPpIWdFApcIeKCHCqAJ+gAqj4hXCqOFXiEZLHQySEXRDgLqS3FLxXKeDCVMSugAHVR6I6VRKwO1UKgOI4+AAsEUaPKrvlHTokYlzhA7CADAQAFb+aTpUOe5XFxcVpOb7++msALZlpEWW//vrreBlccnxd8pdfflGHV69enZDj008/1VzId+7cmS4f+KriROool56G+fbt27Xx+KoiylpVyxbPvNXm5ZdfVoN9+/Zp7XbSD6qoKyu/99576m3fvn1aV7JX0bITExMXLlzI5Thy5IgavPvuu9Plo9b7LZ999lm5dOn/N3Nz/Pvf/1Z7k7+a0CFV8H4CFjTsFgyF1cponH2uYotoCp7Ww1st1S4Wa0X2FRHrPG6Pp/Uw7q0KJqB3tR9ijdeOXQsAKkkVC1QkBbsWsiyrNamzN4VIXT14tSvu3alShQ8CDmZOFQDSUnWqIIqaKvDyXqUJTReS9yoBPAQYVGwaRG5QfQAWoLgvYFwRsA5CybqVEiwLASbeqwCQlqr3Koiipgq8vFdpQtOF5L1KAA8BBvWh9iqhTUFAa2qpSarAm53GhWZkbXyIVY2xtxwVtbNcgSLq3L6nAWPcTXu7XRJ1WRVNje8A6r77tQ1oPwVNhRpf5rHLGyhe1YzeDMBQWTsrRVUNarmzGP5R1qlSAAIc0KsANKsCZKcKIHKqlCLEe5UAh1PFqdII0WAFp0rAxKniVHGqIAZW1UCSQnCqAKbeDMB6+7QeTbSTaWsQScE0Lh4BET8ts/Aotu4kDTtqEaxWRRtggOksFnbwjQH7lBreoPb2aT0WzWs9jLfxgKYCh6Q9igPkoDpVAhSdCE6VIs7qbmxxqjSjDUyNq81iFRKKV1i1TvZepUDPexVEUZXaOozy3HuVKmTaSvdepQg471UqwwUh4nOVcIuqhKxVhs9VCtz+2HOVw4cPj1YfBw4cmJPj0KFDsJXMOfv0fXp6Wg1aRVEpLQRiuIehOlWXl5e1MAZg27ZtU+O6t0OUBQ5zc3Mw0JbkeX7y5Ek1iP8jyuuvv64oWeeABdPZM2fOaPGZmRmtenR09PTp02oA+c0331T/8Wn95s2b4TyuTk5OanW3bt1SoK5fvx4vrg2z8u7du1Fc67Lyhg0b1Im2ROXKAVitt94wS8NCEPZr1H39oO4KBp5SgyoKSiErHEkZxS3TYACHFijYq5rc2KLGWZaBKqja4gCgYI/PcMapgpYkVTsM0dptwCQdxg3UuZWxVGgNihSnSiUCLSHDJXGqAJA2VadKEyiNM3uT6O3YtFnrAwk3S3s3hb02NSmjrFMFgLSpOlWaQGnMOVUCGj4AK0LksaLK7du3l+RokuCBtH79+n45Tpw4Ibb3Rcnsx784ZFn29NNPq0FShvO4+txzz6nDp556Shv/wQcfoHiI4zzPb926pWWtrK5a/r9KxHluvoQPb1D7+vrQADiHevfuXT0XyCsrK7AHUKjrySef1PY89dRTahBfkChe3Nfq1FXyZYR79+5p2aWlpcHBQXiopSoUly5d0hPp7+///vvvtTo1VrndkXq8ZfYmEbevm6stTsqYpaGu+MaW5GsY8GYHYPHm1epVUBcWS+IVtZMbB8rWXisFDUBZGzCwh1p3VR3VqTc7IMeIXY1VdqooGukXhnENnCoAJKglWPM8pBeCU6WJD6DpUm36bUOK3yy9VwkQxoHq7SWDN6dKuAq8iwCpumrTbxtSPAKcKgHCOFB1rxHsQy2FgNzHiirz8/MX5cCpQn3//ffF9r441NMDznEZoA4PD0cqP3XqFOzV+blz5yJlbdb+/fu1uJVRF+Yqu3btUp/4v0WAbOcqqO7HH3/U6i5dugQDqFjwQHUvvPCCtg3y7t271X7Tpk0wQF3IPX78uBpgg4WeRSGPjY3Bg6r4AujWrVs1d2hoSOuanZ1F7rlz59TA1l6kVM5V4k/rFaaWclV9naWjis6cVJVS58m3IOEEe+HUVSHDHlTB8yW7qg6H8IZcPK3vstOo1f3aORvahpbHcYBxUsXOKeCA3R7JHdZV1TlVSmNFp0oIcacKOONUcaoEdpQEp4pTBQg4VUoMCYpTBYHSYa+ybdu233aeRg5UA3VqakrLIvfy5cuam5SvXLkCDxH13LlzSYcRA3i+cuVKxNhGW3yMfuPGDfX2xhtvhMAtBNSuxmstf/vtt1r7//3f/2mNn3zyieb+Nj3QXIvDp59+qgY3btzQ4sCh0WjAQMs2Gg0A9dvrAzBQGF944QXkYl+CtkTlDqlip3HqNCnj4SvsMUuzKz965snN53D+G0worgbJp/Vq3IEcpwocJnGAfZefzIM3AIVN+DDurWqXN7D+gSvYW7XqXJwqJQScKiFQnCoBikIoBYrmxReLvVdRrNqXvVdpByvvVZoo+QCsGDNgXNEE6IHkA7AwsgJQIX0tBFyFoHqvUkLAB2AhMnwAFqAohFKgaF6tARjGFZiIP9r+FDceuxoDg7iqEHUgW6C0uuT/tasxQM7zvO60vtbjfEzrk/cUNLW3KpBH92uf1sMeKnBAblCdKqXnKskrGoDrTHCqJBFuxwDgO1XaAa22jfcqIc5wN41D6b2K9yreq8Q5sprrVKmkyvDwsL6CDDixWGzHFeHWlee5navMz8/r28xw3qW6ceNGbTm2msd7lb/85S9a1sra7KWlJbt7HAaKQ57nBw8etD5Dyo4dO7T4L7/8guLBshCQOz4+rgb4Dh2M634J//PPP9e2ff/9911eJi2Oby3YjzGosX1x/6OPPlKD2dlZbSreB05+Y8ACVaRUUgUFtCn28wt1qQJvvVUBDd6ljlMlubMYTcUtA/u97cwbqELFPcV+Mg/2Xaq1BmA48d6qWAsGDt3XpUAhHgriqUGV7FQpDcCcKt3HZQcenCqr/Oz5TSJ+MbxXqbovIt17lSKQEDBAKajeq3ivEr/zPIxc71VWCem9SrgzxQUA5XOVXtFUYe/9XGX//v36tj4ajens1atX9UV+LCwiArIsO336NOzjKmqPG6+srESgsV9XUOdPPPGEnvXQ0ND8/Dy8ae0zMzOw19zk5ziuXbumzgHUwMAAnKuxlQ8fPqz2t2/fVpv5+XnNHRoaeuKJJ/Tc4/LMzAxOTdUPP/wwXlyNrYyFxOXlZWujKahrdHRUc/fs2QMDPfGdO3cid/fu3WqgoKlcOQCrtbFFPVoZEdD9n0bYKiIp9i4CpOIqaI+K7GcoYBB3XnfgAedQ4xtbHjIOOHE0tUsVztH9AgcYJ9WqtjlVEtA5VQqA6uIAWKvir7N0OHeqNGEENM2MNqSHfDdFi9ByqN6rAK42VcDoVGniBmiaGW1ITpUCpIeMQzeXLHlV4fyPTRWcTC0VZ24fgcMbNl3jcQE+kYbXMPBAfa33ltf6ACk2zKKpyXiCgaUKnicA1S5V1N6lN3S/cW+Ih2T8wBtaHtS1mqug+lqqU6W4PE6VEDZOlQBFSXCqOFVKAZFlThUAsqo6VZwqiAynCgBxqoSB8X3BB2AhPn7XVDl8+PCoHKHRhbB79+656KH2GzduFE9p8dChQ/Ct3opXANTL1NSU2o+NjWnu/v37NbfRaGju6Oio5s7OzqKuPXv2wD6uojiMJycntTrIZ8+eVa589tlnKA57NU7Kdlo/OzurDtFyqHEc8B8SdgUC3uqqoApgefnll9WhndarvX2Wr2VtywOwldP6YFEIcFdLTX5dAXXZuymqgz2ezmJhByESf18FFWVZFn/0hpbYxRYY2Bd7tMYkUGocuaiotFCBA1wl1TgOXe5aSNYOquAEETCWKmqfxEGNVXaqlHYW22sWDxGFspDhAQZOFeDTpupUQSCtqrhJWDRRzHsVANJSTd5NLc6aEr9leK/SxFxRqysnxxXNah5IThUAElQgH9LbEZwqBUpJHKrA9AGYD8BAwNaq9yqVVMEmfFANHa7dr9Ea705TUXstN9jYAld2Il7LOd7bSXqzQNn2RFLQtoil/SDLmuKAhlkVTcWcLT4VyfMcH7m2/uMpWrvtVbAOpMYqO1USvUr8GjhV4viEXI25PM+dKk1AAkY9EZp+H0i1fK7p3dSp0ua1wBV0qjQBaRPBNs2afp0qAhlggRrfYQ3j5NBRqu1ERHVOlSYgncBZXabp94FUbdgix3uVApQ1xaEF7uUkXMHHiio4t7iKMy+jlCUXi2H/e94uGcfB3pvj9nVnq3Fv8edL8bK25XZbg3rAiz3JgaiW7V6OBwxwwLYGO62Ht6rmVU7rqwq0THeqBFjaxL2wd6oE3GoJABn3VqcK8Gmq2PMTH6N3+RZk8oo2m/VAits7VeL4VOUCZKdKEyhAA9WpUiCFu2mbjwsCykDVB2ABmULwAVgJAQzBET0Y9QLKVUDLZVrahETvVQIUtYQyxtkj7lWOHTs2IQfO5Msvv5TMie3bt6P1qj7zzDNqbGU1zrJs+/btsIHBdPk4dOiQ2vf19ak9Vn4uX75cLj2tZd955x3kvvTSS+pNjScmJk6ePJmXDxQvZ+azs7MTcjzzzDPqPClL0ftiXj7Qq+zbtw/2UPH/LdPlo9FoqP3Vq1dzOXBPGRwcVOOJiYnp8iFFW4hHjhyZqHMAKATM4OAgDNQ3UIJl5G5YuqfqSdTa2GLrW9MUbaf9u1BUDaqgLFZ+7J9GAAc4tys/1r+mxNc/4DypquckDtZbfISGSR32gIEq1jnaFlfr9q62uh6mVDXVqVLa2OJUCYHiVAlQFIJTxamCkFhVnSrAxaniVEFIOFVaA9IuVbaUj7179y7I8dZbb0UGiy+++KLYpsWjR4/CG8rgVK5fvw4DVfHHDChb/KtrsF9cXITBtWvXQq79pH9yrlKGbQvm8f/973/VeVIGLGgqcMCfj+7atQv+d+zYoc2Dtxs3bqj9yMiIGtupM9qmxna7xpEjR9QAKzFdBsz09LS2vK4MHILaLlUABEIkPlu1SIXqWwr2LciWZo8kMY6DbRLsoSbf04BDFEcu1PijWPtCC4pDjS9voGFWhbc1DRg8Z0PVHatOlXrQIQhwy7C+YA/VqQJACrXLe6tTxcbhI0jBpXWqAJAqFZfKe5XWQHV5k4g8FcIFeAgqztCpAkCqVFyax5kqOgnbsmULpvXvvvsuDBQyS5VvvvlGJ1vAse5cBdNZ9bywsJCc1qP2uIrTBA52QKU4WBn2d+7c0cb/8MMPaAw8qPHCwsKtW7fUfufOndrakZER2GPer2WtPDY2pt4gDwwMoG1QUTUCBtP6LgPGTuv1dJaXl9GYe/fuqUGV3O5cBeVrfYbCnjmezsJ5XarEtyokn9aj9loqcLAdICIGKqiCFTa7dQXFocbH6B2/p9EOIBYHtA0qPseBeOg+YFCdnoLFIb5rIZR1qgQoOhFsiMALrhlUp0oBl1NlNTC6v0kg/qB6r1IA7b0K7kRB1YDxXiXAQsEHYEWg2BABUhpPdWXbu8I51MdqAIZN+NPl4+2339aTHx8fL+dPa67tVbDpGhfGzlXgHPboVbD5/NixY7CHCudxFWXxMkLd2QUGYD/88MOEHLOzs6hOUc2y++9p6DE5OTktx507d3I5klSRovfFy5cvS2mKd+7cUfvJycmJOseFCxfUY3IAVjdgAJTWdfXqVbT0xIkT03KoscqVcxU1wk51tCOpWqrAOVRLFVQBe1ClzVlacALncTWUalOIewNVkj7hDfZxHJJUgfMu34JE2+Jqkirx4nUDBt6wrQG5QXWqlLZLIlysGoBrU7AeNMWpUsDoVFmNCu9VlB4qO1WcKhoP6e+A4Q5dtz+NDzzg3KqltqYUWzyeEvfnVCnQ815lNU68V6kijFPlcaBKfNM19j7Ft/RUBUrH6biRo1eBWywW4+U++3wdznur9haoLtvW5nS2nVqSi8VxJ+hVcAW7V+O1t4lD5bTeqRLHt7Ncp0pL3Jwq3d8OWnsA3N6rAJA21Tbvpu14816ldaQW/xyvCPb2ZllZ6/8ytOrkR318AAa4gupUKaBoEwcfgFUiEEKqh0Jv7yldNqzNEGmnlj91rwKA/ndDX/1NTuu1OPaWZ1mGlR84T6rqvPteRatLfgcMVddVQRXgAKDsNhlUpy1Pyuhd7bv18ICn9fG5K8raxRIY9HYPGGCJq3bXQpvbO9q9p+JUnSrx61GV61QpAsmp0iSUxgpult6rBJi8VyniBCtg9kEcDDS66sreq4Two4CBh32uogV8ABbQ8AEYSOgDsBAb9wWnSoDDqdIuVQ4fPjwqx1z5mJqakszRycnJcv6cVnPr1i3k7t27V4sjN6lq2dHR0c2bN4cLnGXZ7OysepiZmVH7bdu2qXGWZWp85swZbXme5+fPn1cD5F66dEmdYwoH49z8X/trr72mxffu3at1TU5Oaq6VcSKHDh3S4hs2bFCDTZs2wcP69evVAPK2bdvUfmZmRp1DPnToEIrj3GGPr3iePXtWDc6ePYviGIBpw0ZHR+1fd6C4qnYANjIyog7VWOXKXgUrHlomz3MsDmKWBmOr4sytQTwFVwUqFjQsNLCP1xXPBQ525QfFMa1HSzBGT24bRXG8MIy1YBjXVfGnETivujigeFJFwKDxyaVC9d9xPDhVKhFQfKvkuiHiVKlCMp7uVFm9O8Rhsrm4qUD1XqVAzHsVGzl5nnuv0uSLU8Wp0pIkRWLvqXL79u0lOfrLx9jYmGQuvfPOO+X8hPbVV19p8YS1yW7S4oE0Ozur3n799VdFamVlRXOtrMZWHh4e1vphcPfuXTiEgZbt7+8/ceIE7FX9+eeftfidO3c01/6nHHLv3r2rxZO9yvfffw8PEXVlZUWdQ07iAHuoO3fuBFBQ161bpxcd7cSfWo6Pj6O4qk899ZS6sjLaFtR2R+rwiKWe+BAcZbt/BAmHmM6Gc+uJEF/eSFaBptZd/4B/eEMu1CRV0P2i+MNU41MRnHVy7SS+09x6Q0rViTtVqpBZTXeqJADqRbZTBXRtqtjQ0czoSPJepWW4eq/SUTRVdh6VGUAftfoADPhUqcDNB2Atgfpj9yrz8/MX5RgqH4cPH9ZztnOVsjm1M2fOiO+LyH7ppZcQYVBhf/78eW3MpUuX1Pn8/LzmxuWVlRUte/HixZ07d2rtyL1y5UrcIZp6/PhxeFD1iy++iHvTlmRZpmUvXrz4448/avHh4WGtHSeSZVl8rvLtt9+q/59++kmdA6gkDlo2z/OrV6+q8+effx6nFle1rJX37NkTLx7PRVODWtmr1BqjW6qECloKuIvAJvmUGvZQMfDAdkkYQ7WrTHFY0bvCm1UtUOofT+ttcTW2cnwgahdJ41TBvlI8rQdQvcXBntrDTLGwFylOlRIyiIDkFeptiDhVkoA/BINSQIjiVBEw8typEuDwXiVAUQhOlRIgTpUAh1MlQOFUART3VadKAMWpEqAohMpeJb6xZXx8XB398ssv2GuguVb++eef1V73HfT397/zzjuaa8PXOtSU3k7rP//8c20Mxsrr169H4+Mq/h90fn5enWNji55UIaN2qBs2bNDa8S+qvZ3W//rrr9ry5eVl29pIig0Y9TY/P49Tq6Vio5N6bkeuanYlVVAAba07nYU3qHBuXz+AAYpD7S1VsPKDlnSp4lEsTsSqtarDAldvqWLb1sMU+zGGWiceXwnsuJ1OlRJ0tgdzqhRhChxKqPVacapUIop7hvcqVUgBqLjqvUoVjJ2le69Sws17lQBHfFofzNZCeJx7lfhD6PjNz+6ptk/r49ejy03X2jz7xRZUrcbdy2s6V0k2D90O7PHFFuAA1b44DW9QsRcOuzfso1gYwJsdhqB5PVF706s4VXDx2lSdKkUQgwlOlcr4Aem9VwEgQa1EsKMM71UCsO0I3quUoswHYAEOH4CBP06VEBv3BadKgMOp0i5VTp069dsaSDgCgoWAR5B15yoHDhwInu0luXz5subWlZ988km0VtVXXnkFDjW3e6pEnGtFhYy5yo0bN7T4p59+yqtlXVSnfPDBB+rt73//O2wxAFPjRqNx7tw51B5Rr1y5guJx9fLly+otOVeZmpqKOLRAqfM8zyNlbRbKBrWyV8H7KkC5S6ogREJrqgTUDhVPZ/G0HsaWmWrQPVVwCurcysABi6R2Ycd6iKSACXWf1uNE1lRNUqXL2iMo2ayqupwquYLlVKkKlDVNd6poEJZk3E2Tl6FU2CjeqxhI7id4rxLiqiU+VYmhFATvVbxXQUg8AvVP1KvgqwIYFj///PP4VsDIyIh+ISEpozjU/fv3q4dz586pwczMjN4/XnjhBTUeGhpS40uXLiFS4FyNW8pwrlVnWfb+++9rKeCwa9cutR8YGIA3LWtlfH4BvcpPP/2EIvhgJOo6deoUoIio58+fR3GoKHvs2DE1wGdJzpw5o7lWhre5uTlroymK6s6dO4EDvjcJ50HtTa8S3AVBG1f34auWLeTgtqWAjS0IEfC2rnMsb7RsgCZa/5oS39Chli1lrcjKcRysPVJQo13/gL2qyY0tapyb/5nBgBzLG2hYOzuhbJGQYj9LgnUgNDWoTpVKBAqMnCohViKCUyVQkQIWiy2IWsB7lYCG9ypFqOBBnPcqqxHiVHGq4Gb6WFEFf5agL233972mVAMAAAzbSURBVPfjTyPsK8shOLIsGxwchMGOHTvUoRpnWdbX16e59lkHvI2MjKiHbuYqeGV8aWlp9+7dcI7aoapxsVNGzwV/GjE4OKj269atU2MrI+BQdRyH5J9noLpGo6H+sQYAoGZnZ/VE7Imj5QcPHtTq8CciyXfrtWFLS0sfffSR1o5vDGhF/f39w8PDaEy3cxW4g5ocm2rTrYwOFwb2KTVqhz3UbqhiX+2C87oqWo67KbzZ7hfFoaI41G5wKDaDqEO8MJwECk2Nq1gs1no7kPGcLV51nudOlVWIaq2AJSOg7pXDdXKqAJBCdapUxpX3Ki2h8V6lJSx1E71Xad6P4th1M/DwXiWg/NuWW8XZB2CJpwoBuLnycejQIcXx5ZdfHq0+XnvtNTXOsmx6elr9oejJkydDvS0F2EM9ffq0Ov/www+19m3btsFeq1heXkbupk2btDhyk6o6z/P85MmTkSJ79+7Vln/55ZcoDhWuNm/erE3FLePKlSuwX79+vdpr1b/NRRuNhtrjbyGS9xQ0Na7+4x//0LpswLz22mtqEJenpqZwLvHax8fH1WGVcbtUUUytjMcFqKzuw1cUr6tilobW1noIned53UeQdVur9gAqubyhZfM8r/u0vhugeksVnAhwsH8eCnuowME+3Yd9m6pTJQGUU6UlQE6VlrDcT8S9Gar3KpXA1cnA3dR7lRBmWAeKg+q9ShyfZm4344qml/9J3qv8D4nSr/cqJThUCfxuKXivolh1LHuvUkAHHH7vcxXcTVsyJJKo4ZI8c/ixAw8YqPO6MtZA4dluoon7T+5aiBdHLoCyOMAejYeKFbBaj2JRUVK1OCSLqAEeQdrnSzDQsla2AzAgE1etwyKlclrvVKmCTNNtiOAyqHFSdqoU6DlVmlGEWVoz44Fk76YwSMZcxMB7FYAZ1AhoySx7y0gWUQN0Gk6VcFEyp4oGSpC9VylCxKniVAmkaC04Vf6QVMHFbIb5Ayn5FqQWRwTAlVXrDsAwjYtPZ+3Tem2AndbH52wWB/VmZSwVJgceCmPy6ZatrpsUCxQao6odgKFqNU6+Ww/jPM8BlDXQFMQDWtL7d+u1bnuRbIjAXlWnSrhaTpUiMPAyAgbkGjyF7FQJIVQSvFexsVKklGBaY8V7FVyFysVi2pUvjPcqBR4WhzJO1LxXKeLKexXwa1X1AVhgjFPlT0eVwcHBieixypIHPzdv3pyOHiGSCmH79u0T5QMGefnANG7fvn1a+r333puWo9FoaO7ExIRkTp84cQK5AwMDqF1V26uoNyv/85//VP/PPPOMesMi6YULF9QYTbXO4ynvv/++1mVlFMf/Ohw7dkwbc/DgwVwOO62HNy07MTHxr3/9Sw1u3rwpzlqI8bkKgJqcnFTnkI8fPz5RPk6cOKE2ecXR4QDMAo2UiupaJ6NsUoUXUAXFseJhH0Gqt+QuQDi3VFFvVsbAA95Albp/9Ger05QuN7ZgJRBLhZYqWrVdFkLvCmOrxqkCoOIvDFscsGRqay9SnColBJwqVYHiVCkFShVM9q6A26FVI65sli0eT4EH71UASEvV3k0BcstSIdGp4lQpIeC9SuAGBKdKKVAUnbGxsS1y4A4E9ejRowvlQ11Z+dVXXxXfW+DtrbfeKjujBofoVebn57XAmTNntK5Go6G5ePh179495OKPHJD7n//8R51jslE8ZlYDzONx4n19fWr87LPPwkBzk/LPP/+sQC0vL6PxTz/9tPqHw6mpKS1+7do1Lf7VV1+pvV380LJ5nmvZhYUFzOMRD+q5kPv6+iJNBVADAwPwoI2xvevg4KDaq7HKlVTBXUQbauUuZ2lwaB9BaoutDKpglgZoaj1ZS36Gou50Fme6pipwsLh187posvu11UVSMGvvOSxaNeLB1qXGKjtVFI0WMm4ZsHCq2FArUgBUXHWqVOITh8Z7lar4q5XuvUqASwPRe5UAS+LvQn0AFuLGB2DNoBEp4AOhcgCGab3Oe6z88ccfw29cjU/j3n33XcwC4+revXu1SZjOfvHFF5prp/XqfHFxES0HDmq8sLCAh1/FBxPURqvesmULpvUvvvgiDOKqXND7YtwYONhp/Y4dO9QDnOOegmk9/tdh48aN6soubygmdlqPUQaWN+DZql1O63HiCICgVlIlWDx8wcYfTgZq/Oks2m+f1qs3PIRG2e6fL+FpPdbfbHVI0abW/WiiHXhghAbnoArmbDBO7lqAPdaBQBXLNOAAFQETjweLA9oG50F1qpSAcqoEOJwqgSSF4FQJsXFfcKoEOJwqTpXSfyGEyCgEp0oAxKniVHGqrNLB5yrhvqACGBLUygEYVn7sskMPU0JrCuHmzZtYMImrWAFDw8bGxtS/ndar84e8AoZp/TfffKONP3LkiLbcLiqocVIeGRnRM11YWLh37576R+6NGzc0Nz6tT66AaSxmWfbss89qg+2+Fa06z3MsmSI3Oa3XuiwO2OAD50GtpEocGpx5l2poTWcCNragMbXeV7ENAA4w6PJpPaiC10Xto1icWi0VOOBEkipwSFYNh0l7NbArYFgig/MkVdS5xQHPl+A8qE6VSgQKjBAiAbhCcKpoFKoMoDQrKTtVKiECrHVV71UqkZUMezethTNuGeK4tQjnrY0qUp0qFcBkifs6QLeqU6USWclwqhRgWBx6PACzAdpNSq2hp1zu1iKezuLMLTTdtDxZtnUTK1IxV6nrPGkfNwBQFW1cTcY/DMNzlwNRVG17FVQHNTlXgX1nauUdHR1uZ96rSjlViuBwqoAkhepUaRLHqeJUaUkSp0qTJIXkVHGqOFXIipa6U8Wp8mehyuLi4nTbh32bpS5VJqIHvib417/+VS9DrWn9nTt3cFrXr1/P6xxadZZlaPj27dvV4OjRo6gurmrZLMtgbLca5HJcv34d9gAKzv/2t79NyHH8+HEUV/Xtt99Gcc2dnp4WTy1EvMbz7LPPonhcHR8f19rffvtt2Oe9ODqc1tsVD20rZDtLq0uV+JnWWiyOu7JfV4iv/FhvOHcY4H0VGHepYiUQVSff00DttbZLoqxV0RioiAdbvMsUVNeZ6lQp4eZUCUHpVClFRp47VUqAOFWcKqWAEMWpImDkuVPFqVIKCFF+j1RZXFycKx/S4BYi5iqzs7NaemZmZlSOTz75BC4kc3RkZCTESiHs2bNHDZIyisN+cnJS2wYZT53hyqoo/t133+HUVO1yrnL+/HlUV0vVlli57lwFVdtFBWClNV65cgUXZXl5WQ2q5N8jVaraWpUOquCNJYQIhuD2JRCg3FsVn1/AGWETfrJqFI+rwCHp3AIV999Nbl2qoK7kLUbtLQ4IGDVW2amSJ4OmhwZOFQ2+IDtVVmOs7mJxQLBNwXuVdoCyd9P4LcB7FaDqvYr3Kq0p41RxqjQIQetQWZNUH4AB/EL1AdhqtNUdgNlZGvCNRzFmaRh42Julekt+3Agtsap6sx+AjD+tB1Bd4oCWJDf4wN4CpSdrV9VRXI2tXAuH4m9q4L+Wqg1APFg/aqzy73EA1mWIOFXs5c+yzKlSxL1TpRkeTpUmFiI5VZwqEg4PRKcKEXmgO1UeDVXOnz8/1PaBj9bZoaeOCPM8n5ubg++L5QO5mzZt0uAAVebn59W+0WiUnV3U3FdeeQW5P/30E5qn6o8//gh7bYmdqxw7dkyr27Bhg9pjrmJx0KqLP99Tb3F5fHwcTV1ZWVGH2pLf5Phc5fbt21rd1q1bURx1aUV5ngMHdTU0NGQDZmxsTG1Q18DAgOZaWWu3A7Ddu3drETVWucO5irroQMaKR9IDoIF9/LkKjO3XJdXAzlbjm/CTLyOocysDB1DF2neTYkME9xSAHKcKWtIlDvCWVNFU+23BiIckDlVlnSolBJwqIQqdKuBMKVA07xF+sUWbUcjh+hUCDLxXASAt1eTdFCA7VQCjU6WEgPcqgTBOFacK/zRCEXGqOFU0HlQu3VM1AwOw/p4e69atC5fELhNpMwpZjYv/1tLmrF+/Xg02btyouZAbjcZS+VCD5557rpy5hGUiNe7v7x8bG4O9tsSe2sGDB9UDcFi3bp3mWtki037KysoKmvrcc89pFWj5k08+qblxGUt5WXb/f571aL+deZ4vLi6iOnxhA03t6+uDPVSt3Q5EETBqrHK7VEHjeqtqg1rKPazOjivUeXJjixpnWWb/LhQGOJ34hg6UtSq8danW+hCrbUw8pZu22fd28BnOeNU2VxtjqQJ7NVbZqVLaWexUQdx0rGqQ1ZWdKpWwJ6GsLFk/w3uVgLb3Ki3DJ+ADwXsV71VaBky3iYizWuofrFepdW5u7Ag89ghU9iqP/Zn7CToCtRBwqtSCy43/vAg4Vf68197PvBYCTpVacLnxnxcBp8qf99r7mddC4P8BlAPy6lcEXM4AAAAASUVORK5CYII=;" parent="1" vertex="1">
          <mxGeometry x="115" y="1470" width="84.63" height="84" as="geometry" />
        </mxCell>
        <mxCell id="G6anzaDU-rw7UNGZQOBu-5" style="edgeStyle=orthogonalEdgeStyle;rounded=0;orthogonalLoop=1;jettySize=auto;html=1;" edge="1" parent="1" source="HGs35L_VXP2M7L4PzfNw-10" target="G6anzaDU-rw7UNGZQOBu-1">
          <mxGeometry relative="1" as="geometry">
            <Array as="points">
              <mxPoint x="161" y="1620" />
              <mxPoint x="161" y="1620" />
            </Array>
          </mxGeometry>
        </mxCell>
        <mxCell id="HGs35L_VXP2M7L4PzfNw-10" value="https://m-api.astrowarp.net/sdwan/network/info?networkId=xxxxx&amp;amp;shardId=yyyyyy&amp;amp;shareType=2" style="text;html=1;align=center;verticalAlign=middle;resizable=0;points=[];autosize=1;strokeColor=none;fillColor=none;" parent="1" vertex="1">
          <mxGeometry y="1570" width="540" height="30" as="geometry" />
        </mxCell>
        <mxCell id="HGs35L_VXP2M7L4PzfNw-14" style="edgeStyle=orthogonalEdgeStyle;rounded=0;orthogonalLoop=1;jettySize=auto;html=1;entryX=0.007;entryY=0.571;entryDx=0;entryDy=0;entryPerimeter=0;" parent="1" source="HGs35L_VXP2M7L4PzfNw-4" target="HGs35L_VXP2M7L4PzfNw-10" edge="1">
          <mxGeometry relative="1" as="geometry">
            <Array as="points">
              <mxPoint x="-60" y="1550" />
              <mxPoint x="-60" y="1587" />
            </Array>
          </mxGeometry>
        </mxCell>
        <mxCell id="HGs35L_VXP2M7L4PzfNw-16" value="输入链接" style="edgeLabel;html=1;align=center;verticalAlign=middle;resizable=0;points=[];" parent="HGs35L_VXP2M7L4PzfNw-14" vertex="1" connectable="0">
          <mxGeometry x="0.4725" relative="1" as="geometry">
            <mxPoint as="offset" />
          </mxGeometry>
        </mxCell>
        <mxCell id="HGs35L_VXP2M7L4PzfNw-22" style="edgeStyle=orthogonalEdgeStyle;rounded=0;orthogonalLoop=1;jettySize=auto;html=1;" parent="1" source="HGs35L_VXP2M7L4PzfNw-20" target="HGs35L_VXP2M7L4PzfNw-10" edge="1">
          <mxGeometry relative="1" as="geometry" />
        </mxCell>
        <mxCell id="HGs35L_VXP2M7L4PzfNw-24" value="BASE64解密" style="edgeLabel;html=1;align=center;verticalAlign=middle;resizable=0;points=[];" parent="HGs35L_VXP2M7L4PzfNw-22" vertex="1" connectable="0">
          <mxGeometry x="-0.0959" y="1" relative="1" as="geometry">
            <mxPoint as="offset" />
          </mxGeometry>
        </mxCell>
        <mxCell id="HGs35L_VXP2M7L4PzfNw-20" value="aHR0cHM6Ly9tLWFwaS5hc3Ryb3dhcnAubmV0L3Nkd2FuL25ldHdvcmsva&lt;div&gt;W5mbz9uZXR3b3JrSWQ9eHh4eHgmc2hhcmRJZD15eXl5eXk=&lt;/div&gt;" style="text;html=1;align=center;verticalAlign=middle;resizable=0;points=[];autosize=1;strokeColor=none;fillColor=none;" parent="1" vertex="1">
          <mxGeometry x="320" y="1490" width="420" height="40" as="geometry" />
        </mxCell>
        <mxCell id="G6anzaDU-rw7UNGZQOBu-7" style="edgeStyle=orthogonalEdgeStyle;rounded=0;orthogonalLoop=1;jettySize=auto;html=1;entryX=0.5;entryY=0;entryDx=0;entryDy=0;" edge="1" parent="1" source="G6anzaDU-rw7UNGZQOBu-1" target="G6anzaDU-rw7UNGZQOBu-6">
          <mxGeometry relative="1" as="geometry" />
        </mxCell>
        <mxCell id="G6anzaDU-rw7UNGZQOBu-15" style="edgeStyle=orthogonalEdgeStyle;rounded=0;orthogonalLoop=1;jettySize=auto;html=1;" edge="1" parent="1" source="G6anzaDU-rw7UNGZQOBu-1" target="G6anzaDU-rw7UNGZQOBu-11">
          <mxGeometry relative="1" as="geometry" />
        </mxCell>
        <mxCell id="G6anzaDU-rw7UNGZQOBu-1" value="调用该链接获取网络基本信息" style="rounded=0;whiteSpace=wrap;html=1;" vertex="1" parent="1">
          <mxGeometry x="100.72" y="1650" width="120" height="60" as="geometry" />
        </mxCell>
        <mxCell id="G6anzaDU-rw7UNGZQOBu-17" style="edgeStyle=orthogonalEdgeStyle;rounded=0;orthogonalLoop=1;jettySize=auto;html=1;entryX=0.5;entryY=0;entryDx=0;entryDy=0;" edge="1" parent="1" source="G6anzaDU-rw7UNGZQOBu-6" target="G6anzaDU-rw7UNGZQOBu-16">
          <mxGeometry relative="1" as="geometry" />
        </mxCell>
        <mxCell id="G6anzaDU-rw7UNGZQOBu-6" value="客户端确认加入并连接该网络" style="rounded=0;whiteSpace=wrap;html=1;" vertex="1" parent="1">
          <mxGeometry x="100.72" y="1754" width="120" height="60" as="geometry" />
        </mxCell>
        <mxCell id="G6anzaDU-rw7UNGZQOBu-8" value="扫码得到的URL中shareType值为1" style="shape=callout;whiteSpace=wrap;html=1;perimeter=calloutPerimeter;" vertex="1" parent="1">
          <mxGeometry x="540" y="1530" width="120" height="80" as="geometry" />
        </mxCell>
        <mxCell id="G6anzaDU-rw7UNGZQOBu-11" value="&lt;span style=&quot;white-space-collapse: preserve; box-sizing: border-box; scrollbar-color: var(--app-scrollbar-color) transparent; border: 0 solid var(--ui-border-color-base); color: rgb(55, 59, 65); font-family: SFMono-Regular, consolas, &amp;quot;Liberation Mono&amp;quot;, menlo, courier, monospace; font-size: 9px; background-color: rgb(255, 255, 255);&quot; class=&quot;hljs-punctuation&quot;&gt;{&lt;/span&gt;&lt;span style=&quot;white-space-collapse: preserve; color: rgb(55, 59, 65); font-family: SFMono-Regular, consolas, &amp;quot;Liberation Mono&amp;quot;, menlo, courier, monospace; font-size: 9px; background-color: rgb(255, 255, 255);&quot;&gt;&lt;br style=&quot;font-size: 9px;&quot;&gt;  &lt;/span&gt;&lt;span style=&quot;color: rgb(249, 106, 56); white-space-collapse: preserve; box-sizing: border-box; scrollbar-color: var(--app-scrollbar-color) transparent; border: 0 solid var(--ui-border-color-base); font-family: SFMono-Regular, consolas, &amp;quot;Liberation Mono&amp;quot;, menlo, courier, monospace; font-size: 9px; background-color: rgb(255, 255, 255);&quot; class=&quot;hljs-attr&quot;&gt;&quot;code&quot;&lt;/span&gt;&lt;span style=&quot;white-space-collapse: preserve; box-sizing: border-box; scrollbar-color: var(--app-scrollbar-color) transparent; border: 0 solid var(--ui-border-color-base); color: rgb(55, 59, 65); font-family: SFMono-Regular, consolas, &amp;quot;Liberation Mono&amp;quot;, menlo, courier, monospace; font-size: 9px; background-color: rgb(255, 255, 255);&quot; class=&quot;hljs-punctuation&quot;&gt;:&lt;/span&gt;&lt;span style=&quot;white-space-collapse: preserve; color: rgb(55, 59, 65); font-family: SFMono-Regular, consolas, &amp;quot;Liberation Mono&amp;quot;, menlo, courier, monospace; font-size: 9px; background-color: rgb(255, 255, 255);&quot;&gt; &lt;/span&gt;&lt;span style=&quot;color: rgb(249, 106, 56); white-space-collapse: preserve; box-sizing: border-box; scrollbar-color: var(--app-scrollbar-color) transparent; border: 0 solid var(--ui-border-color-base); font-family: SFMono-Regular, consolas, &amp;quot;Liberation Mono&amp;quot;, menlo, courier, monospace; font-size: 9px; background-color: rgb(255, 255, 255);&quot; class=&quot;hljs-number&quot;&gt;0&lt;/span&gt;&lt;span style=&quot;white-space-collapse: preserve; box-sizing: border-box; scrollbar-color: var(--app-scrollbar-color) transparent; border: 0 solid var(--ui-border-color-base); color: rgb(55, 59, 65); font-family: SFMono-Regular, consolas, &amp;quot;Liberation Mono&amp;quot;, menlo, courier, monospace; font-size: 9px; background-color: rgb(255, 255, 255);&quot; class=&quot;hljs-punctuation&quot;&gt;,&lt;/span&gt;&lt;span style=&quot;white-space-collapse: preserve; color: rgb(55, 59, 65); font-family: SFMono-Regular, consolas, &amp;quot;Liberation Mono&amp;quot;, menlo, courier, monospace; font-size: 9px; background-color: rgb(255, 255, 255);&quot;&gt;&lt;br style=&quot;font-size: 9px;&quot;&gt;  &lt;/span&gt;&lt;span style=&quot;color: rgb(249, 106, 56); white-space-collapse: preserve; box-sizing: border-box; scrollbar-color: var(--app-scrollbar-color) transparent; border: 0 solid var(--ui-border-color-base); font-family: SFMono-Regular, consolas, &amp;quot;Liberation Mono&amp;quot;, menlo, courier, monospace; font-size: 9px; background-color: rgb(255, 255, 255);&quot; class=&quot;hljs-attr&quot;&gt;&quot;msg&quot;&lt;/span&gt;&lt;span style=&quot;white-space-collapse: preserve; box-sizing: border-box; scrollbar-color: var(--app-scrollbar-color) transparent; border: 0 solid var(--ui-border-color-base); color: rgb(55, 59, 65); font-family: SFMono-Regular, consolas, &amp;quot;Liberation Mono&amp;quot;, menlo, courier, monospace; font-size: 9px; background-color: rgb(255, 255, 255);&quot; class=&quot;hljs-punctuation&quot;&gt;:&lt;/span&gt;&lt;span style=&quot;white-space-collapse: preserve; color: rgb(55, 59, 65); font-family: SFMono-Regular, consolas, &amp;quot;Liberation Mono&amp;quot;, menlo, courier, monospace; font-size: 9px; background-color: rgb(255, 255, 255);&quot;&gt; &lt;/span&gt;&lt;span style=&quot;color: rgb(25, 136, 68); white-space-collapse: preserve; box-sizing: border-box; scrollbar-color: var(--app-scrollbar-color) transparent; border: 0 solid var(--ui-border-color-base); font-family: SFMono-Regular, consolas, &amp;quot;Liberation Mono&amp;quot;, menlo, courier, monospace; font-size: 9px; background-color: rgb(255, 255, 255);&quot; class=&quot;hljs-string&quot;&gt;&quot;success&quot;&lt;/span&gt;&lt;span style=&quot;white-space-collapse: preserve; box-sizing: border-box; scrollbar-color: var(--app-scrollbar-color) transparent; border: 0 solid var(--ui-border-color-base); color: rgb(55, 59, 65); font-family: SFMono-Regular, consolas, &amp;quot;Liberation Mono&amp;quot;, menlo, courier, monospace; font-size: 9px; background-color: rgb(255, 255, 255);&quot; class=&quot;hljs-punctuation&quot;&gt;,&lt;/span&gt;&lt;span style=&quot;white-space-collapse: preserve; color: rgb(55, 59, 65); font-family: SFMono-Regular, consolas, &amp;quot;Liberation Mono&amp;quot;, menlo, courier, monospace; font-size: 9px; background-color: rgb(255, 255, 255);&quot;&gt;&lt;br style=&quot;font-size: 9px;&quot;&gt;  &lt;/span&gt;&lt;span style=&quot;color: rgb(249, 106, 56); white-space-collapse: preserve; box-sizing: border-box; scrollbar-color: var(--app-scrollbar-color) transparent; border: 0 solid var(--ui-border-color-base); font-family: SFMono-Regular, consolas, &amp;quot;Liberation Mono&amp;quot;, menlo, courier, monospace; font-size: 9px; background-color: rgb(255, 255, 255);&quot; class=&quot;hljs-attr&quot;&gt;&quot;info&quot;&lt;/span&gt;&lt;span style=&quot;white-space-collapse: preserve; box-sizing: border-box; scrollbar-color: var(--app-scrollbar-color) transparent; border: 0 solid var(--ui-border-color-base); color: rgb(55, 59, 65); font-family: SFMono-Regular, consolas, &amp;quot;Liberation Mono&amp;quot;, menlo, courier, monospace; font-size: 9px; background-color: rgb(255, 255, 255);&quot; class=&quot;hljs-punctuation&quot;&gt;:&lt;/span&gt;&lt;span style=&quot;white-space-collapse: preserve; color: rgb(55, 59, 65); font-family: SFMono-Regular, consolas, &amp;quot;Liberation Mono&amp;quot;, menlo, courier, monospace; font-size: 9px; background-color: rgb(255, 255, 255);&quot;&gt; &lt;/span&gt;&lt;span style=&quot;white-space-collapse: preserve; box-sizing: border-box; scrollbar-color: var(--app-scrollbar-color) transparent; border: 0 solid var(--ui-border-color-base); color: rgb(55, 59, 65); font-family: SFMono-Regular, consolas, &amp;quot;Liberation Mono&amp;quot;, menlo, courier, monospace; font-size: 9px; background-color: rgb(255, 255, 255);&quot; class=&quot;hljs-punctuation&quot;&gt;{&lt;/span&gt;&lt;span style=&quot;white-space-collapse: preserve; color: rgb(55, 59, 65); font-family: SFMono-Regular, consolas, &amp;quot;Liberation Mono&amp;quot;, menlo, courier, monospace; font-size: 9px; background-color: rgb(255, 255, 255);&quot;&gt;&lt;br style=&quot;font-size: 9px;&quot;&gt;    &lt;/span&gt;&lt;span style=&quot;color: rgb(249, 106, 56); white-space-collapse: preserve; box-sizing: border-box; scrollbar-color: var(--app-scrollbar-color) transparent; border: 0 solid var(--ui-border-color-base); font-family: SFMono-Regular, consolas, &amp;quot;Liberation Mono&amp;quot;, menlo, courier, monospace; font-size: 9px; background-color: rgb(255, 255, 255);&quot; class=&quot;hljs-attr&quot;&gt;&quot;networkId&quot;&lt;/span&gt;&lt;span style=&quot;white-space-collapse: preserve; box-sizing: border-box; scrollbar-color: var(--app-scrollbar-color) transparent; border: 0 solid var(--ui-border-color-base); color: rgb(55, 59, 65); font-family: SFMono-Regular, consolas, &amp;quot;Liberation Mono&amp;quot;, menlo, courier, monospace; font-size: 9px; background-color: rgb(255, 255, 255);&quot; class=&quot;hljs-punctuation&quot;&gt;:&lt;/span&gt;&lt;span style=&quot;white-space-collapse: preserve; color: rgb(55, 59, 65); font-family: SFMono-Regular, consolas, &amp;quot;Liberation Mono&amp;quot;, menlo, courier, monospace; font-size: 9px; background-color: rgb(255, 255, 255);&quot;&gt; &lt;/span&gt;&lt;span style=&quot;color: rgb(25, 136, 68); white-space-collapse: preserve; box-sizing: border-box; scrollbar-color: var(--app-scrollbar-color) transparent; border: 0 solid var(--ui-border-color-base); font-family: SFMono-Regular, consolas, &amp;quot;Liberation Mono&amp;quot;, menlo, courier, monospace; font-size: 9px; background-color: rgb(255, 255, 255);&quot; class=&quot;hljs-string&quot;&gt;&quot;xxxxx&quot;&lt;/span&gt;&lt;span style=&quot;white-space-collapse: preserve; box-sizing: border-box; scrollbar-color: var(--app-scrollbar-color) transparent; border: 0 solid var(--ui-border-color-base); color: rgb(55, 59, 65); font-family: SFMono-Regular, consolas, &amp;quot;Liberation Mono&amp;quot;, menlo, courier, monospace; font-size: 9px; background-color: rgb(255, 255, 255);&quot; class=&quot;hljs-punctuation&quot;&gt;,&lt;/span&gt;&lt;span style=&quot;white-space-collapse: preserve; color: rgb(55, 59, 65); font-family: SFMono-Regular, consolas, &amp;quot;Liberation Mono&amp;quot;, menlo, courier, monospace; font-size: 9px; background-color: rgb(255, 255, 255);&quot;&gt;&lt;br style=&quot;font-size: 9px;&quot;&gt;    &lt;/span&gt;&lt;span style=&quot;color: rgb(249, 106, 56); white-space-collapse: preserve; box-sizing: border-box; scrollbar-color: var(--app-scrollbar-color) transparent; border: 0 solid var(--ui-border-color-base); font-family: SFMono-Regular, consolas, &amp;quot;Liberation Mono&amp;quot;, menlo, courier, monospace; font-size: 9px; background-color: rgb(255, 255, 255);&quot; class=&quot;hljs-attr&quot;&gt;&quot;networkName&quot;&lt;/span&gt;&lt;span style=&quot;white-space-collapse: preserve; box-sizing: border-box; scrollbar-color: var(--app-scrollbar-color) transparent; border: 0 solid var(--ui-border-color-base); color: rgb(55, 59, 65); font-family: SFMono-Regular, consolas, &amp;quot;Liberation Mono&amp;quot;, menlo, courier, monospace; font-size: 9px; background-color: rgb(255, 255, 255);&quot; class=&quot;hljs-punctuation&quot;&gt;:&lt;/span&gt;&lt;span style=&quot;white-space-collapse: preserve; color: rgb(55, 59, 65); font-family: SFMono-Regular, consolas, &amp;quot;Liberation Mono&amp;quot;, menlo, courier, monospace; font-size: 9px; background-color: rgb(255, 255, 255);&quot;&gt; &lt;/span&gt;&lt;span style=&quot;color: rgb(25, 136, 68); white-space-collapse: preserve; box-sizing: border-box; scrollbar-color: var(--app-scrollbar-color) transparent; border: 0 solid var(--ui-border-color-base); font-family: SFMono-Regular, consolas, &amp;quot;Liberation Mono&amp;quot;, menlo, courier, monospace; font-size: 9px; background-color: rgb(255, 255, 255);&quot; class=&quot;hljs-string&quot;&gt;&quot;name&quot;&lt;/span&gt;&lt;span style=&quot;white-space-collapse: preserve; box-sizing: border-box; scrollbar-color: var(--app-scrollbar-color) transparent; border: 0 solid var(--ui-border-color-base); color: rgb(55, 59, 65); font-family: SFMono-Regular, consolas, &amp;quot;Liberation Mono&amp;quot;, menlo, courier, monospace; font-size: 9px; background-color: rgb(255, 255, 255);&quot; class=&quot;hljs-punctuation&quot;&gt;,&lt;/span&gt;&lt;span style=&quot;white-space-collapse: preserve; color: rgb(55, 59, 65); font-family: SFMono-Regular, consolas, &amp;quot;Liberation Mono&amp;quot;, menlo, courier, monospace; font-size: 9px; background-color: rgb(255, 255, 255);&quot;&gt;&lt;br style=&quot;font-size: 9px;&quot;&gt;    &lt;/span&gt;&lt;span style=&quot;color: rgb(249, 106, 56); white-space-collapse: preserve; box-sizing: border-box; scrollbar-color: var(--app-scrollbar-color) transparent; border: 0 solid var(--ui-border-color-base); font-family: SFMono-Regular, consolas, &amp;quot;Liberation Mono&amp;quot;, menlo, courier, monospace; font-size: 9px; background-color: rgb(255, 255, 255);&quot; class=&quot;hljs-attr&quot;&gt;&quot;shareId&quot;&lt;/span&gt;&lt;span style=&quot;white-space-collapse: preserve; box-sizing: border-box; scrollbar-color: var(--app-scrollbar-color) transparent; border: 0 solid var(--ui-border-color-base); color: rgb(55, 59, 65); font-family: SFMono-Regular, consolas, &amp;quot;Liberation Mono&amp;quot;, menlo, courier, monospace; font-size: 9px; background-color: rgb(255, 255, 255);&quot; class=&quot;hljs-punctuation&quot;&gt;:&lt;/span&gt;&lt;span style=&quot;white-space-collapse: preserve; color: rgb(55, 59, 65); font-family: SFMono-Regular, consolas, &amp;quot;Liberation Mono&amp;quot;, menlo, courier, monospace; font-size: 9px; background-color: rgb(255, 255, 255);&quot;&gt; &lt;/span&gt;&lt;span style=&quot;color: rgb(25, 136, 68); white-space-collapse: preserve; box-sizing: border-box; scrollbar-color: var(--app-scrollbar-color) transparent; border: 0 solid var(--ui-border-color-base); font-family: SFMono-Regular, consolas, &amp;quot;Liberation Mono&amp;quot;, menlo, courier, monospace; font-size: 9px; background-color: rgb(255, 255, 255);&quot; class=&quot;hljs-string&quot;&gt;&quot;yyyyyyyyyyyyy&quot;&lt;/span&gt;&lt;span style=&quot;white-space-collapse: preserve; box-sizing: border-box; scrollbar-color: var(--app-scrollbar-color) transparent; border: 0 solid var(--ui-border-color-base); color: rgb(55, 59, 65); font-family: SFMono-Regular, consolas, &amp;quot;Liberation Mono&amp;quot;, menlo, courier, monospace; font-size: 9px; background-color: rgb(255, 255, 255);&quot; class=&quot;hljs-punctuation&quot;&gt;,&lt;/span&gt;&lt;span style=&quot;white-space-collapse: preserve; color: rgb(55, 59, 65); font-family: SFMono-Regular, consolas, &amp;quot;Liberation Mono&amp;quot;, menlo, courier, monospace; font-size: 9px; background-color: rgb(255, 255, 255);&quot;&gt;&lt;br style=&quot;font-size: 9px;&quot;&gt;    &lt;/span&gt;&lt;span style=&quot;color: rgb(249, 106, 56); white-space-collapse: preserve; box-sizing: border-box; scrollbar-color: var(--app-scrollbar-color) transparent; border: 0 solid var(--ui-border-color-base); font-family: SFMono-Regular, consolas, &amp;quot;Liberation Mono&amp;quot;, menlo, courier, monospace; font-size: 9px; background-color: rgb(255, 255, 255);&quot; class=&quot;hljs-attr&quot;&gt;&quot;shareType&quot;&lt;/span&gt;&lt;span style=&quot;white-space-collapse: preserve; box-sizing: border-box; scrollbar-color: var(--app-scrollbar-color) transparent; border: 0 solid var(--ui-border-color-base); color: rgb(55, 59, 65); font-family: SFMono-Regular, consolas, &amp;quot;Liberation Mono&amp;quot;, menlo, courier, monospace; font-size: 9px; background-color: rgb(255, 255, 255);&quot; class=&quot;hljs-punctuation&quot;&gt;:&lt;/span&gt;&lt;span style=&quot;white-space-collapse: preserve; color: rgb(55, 59, 65); font-family: SFMono-Regular, consolas, &amp;quot;Liberation Mono&amp;quot;, menlo, courier, monospace; font-size: 9px; background-color: rgb(255, 255, 255);&quot;&gt; &lt;/span&gt;&lt;span style=&quot;color: rgb(249, 106, 56); white-space-collapse: preserve; box-sizing: border-box; scrollbar-color: var(--app-scrollbar-color) transparent; border: 0 solid var(--ui-border-color-base); font-family: SFMono-Regular, consolas, &amp;quot;Liberation Mono&amp;quot;, menlo, courier, monospace; font-size: 9px; background-color: rgb(255, 255, 255);&quot; class=&quot;hljs-number&quot;&gt;1&lt;/span&gt;&lt;span style=&quot;white-space-collapse: preserve; box-sizing: border-box; scrollbar-color: var(--app-scrollbar-color) transparent; border: 0 solid var(--ui-border-color-base); color: rgb(55, 59, 65); font-family: SFMono-Regular, consolas, &amp;quot;Liberation Mono&amp;quot;, menlo, courier, monospace; font-size: 9px; background-color: rgb(255, 255, 255);&quot; class=&quot;hljs-punctuation&quot;&gt;,&lt;/span&gt;&lt;span style=&quot;white-space-collapse: preserve; color: rgb(55, 59, 65); font-family: SFMono-Regular, consolas, &amp;quot;Liberation Mono&amp;quot;, menlo, courier, monospace; font-size: 9px; background-color: rgb(255, 255, 255);&quot;&gt;&lt;br style=&quot;font-size: 9px;&quot;&gt;    &lt;/span&gt;&lt;span style=&quot;color: rgb(249, 106, 56); white-space-collapse: preserve; box-sizing: border-box; scrollbar-color: var(--app-scrollbar-color) transparent; border: 0 solid var(--ui-border-color-base); font-family: SFMono-Regular, consolas, &amp;quot;Liberation Mono&amp;quot;, menlo, courier, monospace; font-size: 9px; background-color: rgb(255, 255, 255);&quot; class=&quot;hljs-attr&quot;&gt;&quot;expired&quot;&lt;/span&gt;&lt;span style=&quot;white-space-collapse: preserve; box-sizing: border-box; scrollbar-color: var(--app-scrollbar-color) transparent; border: 0 solid var(--ui-border-color-base); color: rgb(55, 59, 65); font-family: SFMono-Regular, consolas, &amp;quot;Liberation Mono&amp;quot;, menlo, courier, monospace; font-size: 9px; background-color: rgb(255, 255, 255);&quot; class=&quot;hljs-punctuation&quot;&gt;:&lt;/span&gt;&lt;span style=&quot;white-space-collapse: preserve; color: rgb(55, 59, 65); font-family: SFMono-Regular, consolas, &amp;quot;Liberation Mono&amp;quot;, menlo, courier, monospace; font-size: 9px; background-color: rgb(255, 255, 255);&quot;&gt; &lt;/span&gt;&lt;span style=&quot;color: rgb(249, 106, 56); white-space-collapse: preserve; box-sizing: border-box; scrollbar-color: var(--app-scrollbar-color) transparent; border: 0 solid var(--ui-border-color-base); font-family: SFMono-Regular, consolas, &amp;quot;Liberation Mono&amp;quot;, menlo, courier, monospace; font-size: 9px; background-color: rgb(255, 255, 255);&quot; class=&quot;hljs-number&quot;&gt;1781247857541&lt;/span&gt;&lt;span style=&quot;white-space-collapse: preserve; color: rgb(55, 59, 65); font-family: SFMono-Regular, consolas, &amp;quot;Liberation Mono&amp;quot;, menlo, courier, monospace; font-size: 9px; background-color: rgb(255, 255, 255);&quot;&gt;  &lt;/span&gt;&lt;div style=&quot;line-height: 80%;&quot;&gt;&lt;span style=&quot;white-space-collapse: preserve; box-sizing: border-box; scrollbar-color: var(--app-scrollbar-color) transparent; border: 0 solid var(--ui-border-color-base); color: rgb(55, 59, 65); font-family: SFMono-Regular, consolas, &amp;quot;Liberation Mono&amp;quot;, menlo, courier, monospace; font-size: 9px; background-color: rgb(255, 255, 255);&quot; class=&quot;hljs-punctuation&quot;&gt;    }&lt;/span&gt;&lt;span style=&quot;white-space-collapse: preserve; color: rgb(55, 59, 65); font-family: SFMono-Regular, consolas, &amp;quot;Liberation Mono&amp;quot;, menlo, courier, monospace; font-size: 9px; background-color: rgb(255, 255, 255);&quot;&gt;&lt;br style=&quot;font-size: 9px;&quot;&gt;&lt;/span&gt;&lt;span style=&quot;white-space-collapse: preserve; box-sizing: border-box; scrollbar-color: var(--app-scrollbar-color) transparent; border: 0 solid var(--ui-border-color-base); color: rgb(55, 59, 65); font-family: SFMono-Regular, consolas, &amp;quot;Liberation Mono&amp;quot;, menlo, courier, monospace; font-size: 9px; background-color: rgb(255, 255, 255);&quot; class=&quot;hljs-punctuation&quot;&gt;}&lt;/span&gt;&lt;/div&gt;" style="text;html=1;align=left;verticalAlign=middle;whiteSpace=wrap;rounded=0;fontSize=9;" vertex="1" parent="1">
          <mxGeometry x="300" y="1665" width="169" height="30" as="geometry" />
        </mxCell>
        <mxCell id="G6anzaDU-rw7UNGZQOBu-19" style="edgeStyle=orthogonalEdgeStyle;rounded=0;orthogonalLoop=1;jettySize=auto;html=1;" edge="1" parent="1" source="G6anzaDU-rw7UNGZQOBu-16">
          <mxGeometry relative="1" as="geometry">
            <mxPoint x="340" y="1895" as="targetPoint" />
          </mxGeometry>
        </mxCell>
        <mxCell id="G6anzaDU-rw7UNGZQOBu-20" value="Post" style="edgeLabel;html=1;align=center;verticalAlign=middle;resizable=0;points=[];" vertex="1" connectable="0" parent="G6anzaDU-rw7UNGZQOBu-19">
          <mxGeometry x="-0.1437" y="-2" relative="1" as="geometry">
            <mxPoint as="offset" />
          </mxGeometry>
        </mxCell>
        <mxCell id="G6anzaDU-rw7UNGZQOBu-23" style="edgeStyle=orthogonalEdgeStyle;rounded=0;orthogonalLoop=1;jettySize=auto;html=1;" edge="1" parent="1" source="G6anzaDU-rw7UNGZQOBu-16" target="G6anzaDU-rw7UNGZQOBu-21">
          <mxGeometry relative="1" as="geometry" />
        </mxCell>
        <mxCell id="G6anzaDU-rw7UNGZQOBu-16" value="调用Connect接口加入 并连接到该网络" style="rounded=0;whiteSpace=wrap;html=1;" vertex="1" parent="1">
          <mxGeometry x="100" y="1865" width="120" height="60" as="geometry" />
        </mxCell>
        <mxCell id="G6anzaDU-rw7UNGZQOBu-18" value="&lt;div style=&quot;color: rgb(0, 0, 0); background-color: rgb(255, 255, 254); font-family: Consolas, &amp;quot;Courier New&amp;quot;, monospace; font-weight: normal; font-size: 10px; line-height: 90%; white-space: pre;&quot;&gt;&lt;div style=&quot;line-height: 90%;&quot;&gt;&lt;span style=&quot;color: #000000;&quot;&gt;{&lt;/span&gt;&lt;/div&gt;&lt;div style=&quot;line-height: 90%;&quot;&gt;&lt;span style=&quot;color: #000000;&quot;&gt;&amp;nbsp; &amp;nbsp; &lt;/span&gt;&lt;span style=&quot;color: #a31515;&quot;&gt;&quot;networkId&quot;&lt;/span&gt;&lt;span style=&quot;color: #000000;&quot;&gt;: &lt;/span&gt;&lt;span style=&quot;color: #0451a5;&quot;&gt;&quot;string&quot;&lt;/span&gt;&lt;span style=&quot;color: #000000;&quot;&gt;,&lt;/span&gt;&lt;/div&gt;&lt;div style=&quot;line-height: 90%;&quot;&gt;&lt;span style=&quot;color: #000000;&quot;&gt;&amp;nbsp; &amp;nbsp; &lt;/span&gt;&lt;span style=&quot;color: #a31515;&quot;&gt;&quot;shareId&quot;&lt;/span&gt;&lt;span style=&quot;color: #000000;&quot;&gt;: &lt;/span&gt;&lt;span style=&quot;color: #0451a5;&quot;&gt;&quot;string&quot;&lt;/span&gt;&lt;span style=&quot;color: #000000;&quot;&gt;,&lt;/span&gt;&lt;/div&gt;&lt;div style=&quot;line-height: 90%;&quot;&gt;&lt;span style=&quot;color: #000000;&quot;&gt;&amp;nbsp; &amp;nbsp; &lt;/span&gt;&lt;span style=&quot;color: #a31515;&quot;&gt;&quot;shareType&quot;&lt;/span&gt;&lt;span style=&quot;color: #000000;&quot;&gt;: &lt;/span&gt;&lt;span style=&quot;color: #0451a5;&quot;&gt;&quot;string&quot;&lt;/span&gt;&lt;span style=&quot;color: #000000;&quot;&gt;,&lt;/span&gt;&lt;/div&gt;&lt;div style=&quot;line-height: 90%;&quot;&gt;&lt;span style=&quot;color: #000000;&quot;&gt;&amp;nbsp; &amp;nbsp; &lt;/span&gt;&lt;span style=&quot;color: #a31515;&quot;&gt;&quot;userId&quot;&lt;/span&gt;&lt;span style=&quot;color: #000000;&quot;&gt;: &lt;/span&gt;&lt;span style=&quot;color: #0451a5;&quot;&gt;&quot;string&quot;&lt;/span&gt;&lt;span style=&quot;color: #000000;&quot;&gt;,&lt;/span&gt;&lt;/div&gt;&lt;div style=&quot;line-height: 90%;&quot;&gt;&lt;span style=&quot;color: #000000;&quot;&gt;&amp;nbsp; &amp;nbsp; &lt;/span&gt;&lt;span style=&quot;color: #a31515;&quot;&gt;&quot;clientId&quot;&lt;/span&gt;&lt;span style=&quot;color: #000000;&quot;&gt;: &lt;/span&gt;&lt;span style=&quot;color: #0451a5;&quot;&gt;&quot;string&quot;&lt;/span&gt;&lt;span style=&quot;color: #000000;&quot;&gt;,&lt;/span&gt;&lt;/div&gt;&lt;div style=&quot;line-height: 90%;&quot;&gt;&lt;span style=&quot;color: #000000;&quot;&gt;&amp;nbsp; &amp;nbsp; &lt;/span&gt;&lt;span style=&quot;color: #a31515;&quot;&gt;&quot;clientType&quot;&lt;/span&gt;&lt;span style=&quot;color: #000000;&quot;&gt;: &lt;/span&gt;&lt;span style=&quot;color: #0451a5;&quot;&gt;&quot;string&quot;&lt;/span&gt;&lt;span style=&quot;color: #000000;&quot;&gt;,&lt;/span&gt;&lt;/div&gt;&lt;div style=&quot;line-height: 90%;&quot;&gt;&lt;span style=&quot;color: #000000;&quot;&gt;&amp;nbsp; &amp;nbsp; &lt;/span&gt;&lt;span style=&quot;color: #a31515;&quot;&gt;&quot;clientVersion&quot;&lt;/span&gt;&lt;span style=&quot;color: #000000;&quot;&gt;: &lt;/span&gt;&lt;span style=&quot;color: #0451a5;&quot;&gt;&quot;string&quot;&lt;/span&gt;&lt;span style=&quot;color: #000000;&quot;&gt;,&lt;/span&gt;&lt;/div&gt;&lt;div style=&quot;line-height: 90%;&quot;&gt;&lt;span style=&quot;color: #000000;&quot;&gt;&amp;nbsp; &amp;nbsp; &lt;/span&gt;&lt;span style=&quot;color: #a31515;&quot;&gt;&quot;clientName&quot;&lt;/span&gt;&lt;span style=&quot;color: #000000;&quot;&gt;: &lt;/span&gt;&lt;span style=&quot;color: #0451a5;&quot;&gt;&quot;string&quot;&lt;/span&gt;&lt;span style=&quot;color: #000000;&quot;&gt;,&lt;/span&gt;&lt;/div&gt;&lt;div style=&quot;line-height: 90%;&quot;&gt;&lt;span style=&quot;color: #000000;&quot;&gt;&amp;nbsp; &amp;nbsp; &lt;/span&gt;&lt;span style=&quot;color: #a31515;&quot;&gt;&quot;systemVersion&quot;&lt;/span&gt;&lt;span style=&quot;color: #000000;&quot;&gt;: &lt;/span&gt;&lt;span style=&quot;color: #0451a5;&quot;&gt;&quot;string&quot;&lt;/span&gt;&lt;span style=&quot;color: #000000;&quot;&gt;,&lt;/span&gt;&lt;/div&gt;&lt;div style=&quot;line-height: 90%;&quot;&gt;&lt;span style=&quot;color: #000000;&quot;&gt;&amp;nbsp; &amp;nbsp; &lt;/span&gt;&lt;span style=&quot;color: #a31515;&quot;&gt;&quot;timestamp&quot;&lt;/span&gt;&lt;span style=&quot;color: #000000;&quot;&gt;: &lt;/span&gt;&lt;span style=&quot;color: #098658;&quot;&gt;0&lt;/span&gt;&lt;span style=&quot;color: #000000;&quot;&gt;,&lt;/span&gt;&lt;/div&gt;&lt;div style=&quot;line-height: 90%;&quot;&gt;&lt;span style=&quot;color: #000000;&quot;&gt;&amp;nbsp; &amp;nbsp; &lt;/span&gt;&lt;span style=&quot;color: #a31515;&quot;&gt;&quot;sign&quot;&lt;/span&gt;&lt;span style=&quot;color: #000000;&quot;&gt;: &lt;/span&gt;&lt;span style=&quot;color: #0451a5;&quot;&gt;&quot;string&quot;&lt;/span&gt;&lt;/div&gt;&lt;div style=&quot;line-height: 90%;&quot;&gt;&lt;span style=&quot;color: #000000;&quot;&gt;}&lt;/span&gt;&lt;/div&gt;&lt;/div&gt;" style="text;whiteSpace=wrap;html=1;" vertex="1" parent="1">
          <mxGeometry x="338.57" y="1820" width="230" height="160" as="geometry" />
        </mxCell>
        <mxCell id="G6anzaDU-rw7UNGZQOBu-27" style="edgeStyle=orthogonalEdgeStyle;rounded=0;orthogonalLoop=1;jettySize=auto;html=1;" edge="1" parent="1" source="G6anzaDU-rw7UNGZQOBu-21" target="G6anzaDU-rw7UNGZQOBu-26">
          <mxGeometry relative="1" as="geometry" />
        </mxCell>
        <mxCell id="G6anzaDU-rw7UNGZQOBu-29" value="配置成功" style="edgeLabel;html=1;align=center;verticalAlign=middle;resizable=0;points=[];" vertex="1" connectable="0" parent="G6anzaDU-rw7UNGZQOBu-27">
          <mxGeometry x="-0.0665" y="-1" relative="1" as="geometry">
            <mxPoint as="offset" />
          </mxGeometry>
        </mxCell>
        <mxCell id="G6anzaDU-rw7UNGZQOBu-21" value="根据调用返回的配置，配置本地wg和hosts" style="rounded=0;whiteSpace=wrap;html=1;" vertex="1" parent="1">
          <mxGeometry x="100.72" y="2010" width="120" height="60" as="geometry" />
        </mxCell>
        <mxCell id="G6anzaDU-rw7UNGZQOBu-22" value="Request Body" style="text;html=1;align=center;verticalAlign=middle;whiteSpace=wrap;rounded=0;" vertex="1" parent="1">
          <mxGeometry x="350" y="1800" width="80" height="30" as="geometry" />
        </mxCell>
        <mxCell id="G6anzaDU-rw7UNGZQOBu-24" value="&lt;div style=&quot;color: rgb(0, 0, 0); background-color: rgb(255, 255, 254); font-family: Consolas, &amp;quot;Courier New&amp;quot;, monospace; font-weight: normal; font-size: 9px; line-height: 98%; white-space: pre;&quot;&gt;&lt;div style=&quot;line-height: 98%;&quot;&gt;&lt;span style=&quot;color: #000000;&quot;&gt;{&lt;/span&gt;&lt;/div&gt;&lt;div style=&quot;line-height: 98%;&quot;&gt;&lt;span style=&quot;color: #000000;&quot;&gt;&amp;nbsp; &amp;nbsp; &lt;/span&gt;&lt;span style=&quot;color: #a31515;&quot;&gt;&quot;code&quot;&lt;/span&gt;&lt;span style=&quot;color: #000000;&quot;&gt;: &lt;/span&gt;&lt;span style=&quot;color: #098658;&quot;&gt;0&lt;/span&gt;&lt;span style=&quot;color: #000000;&quot;&gt;,&lt;/span&gt;&lt;/div&gt;&lt;div style=&quot;line-height: 98%;&quot;&gt;&lt;span style=&quot;color: #000000;&quot;&gt;&amp;nbsp; &amp;nbsp; &lt;/span&gt;&lt;span style=&quot;color: #a31515;&quot;&gt;&quot;msg&quot;&lt;/span&gt;&lt;span style=&quot;color: #000000;&quot;&gt;: &lt;/span&gt;&lt;span style=&quot;color: #0451a5;&quot;&gt;&quot;string&quot;&lt;/span&gt;&lt;span style=&quot;color: #000000;&quot;&gt;,&lt;/span&gt;&lt;/div&gt;&lt;div style=&quot;line-height: 98%;&quot;&gt;&lt;span style=&quot;color: #000000;&quot;&gt;&amp;nbsp; &amp;nbsp; &lt;/span&gt;&lt;span style=&quot;color: #a31515;&quot;&gt;&quot;info&quot;&lt;/span&gt;&lt;span style=&quot;color: #000000;&quot;&gt;: {&lt;/span&gt;&lt;/div&gt;&lt;div style=&quot;line-height: 98%;&quot;&gt;&lt;span style=&quot;color: #000000;&quot;&gt;&amp;nbsp; &amp;nbsp; &amp;nbsp; &amp;nbsp; &lt;/span&gt;&lt;span style=&quot;color: #a31515;&quot;&gt;&quot;resourceList&quot;&lt;/span&gt;&lt;span style=&quot;color: #000000;&quot;&gt;: [&lt;/span&gt;&lt;/div&gt;&lt;div style=&quot;line-height: 98%;&quot;&gt;&lt;span style=&quot;color: #000000;&quot;&gt;&amp;nbsp; &amp;nbsp; &amp;nbsp; &amp;nbsp; &amp;nbsp; &amp;nbsp; {&lt;/span&gt;&lt;/div&gt;&lt;div style=&quot;line-height: 98%;&quot;&gt;&lt;span style=&quot;color: #000000;&quot;&gt;&amp;nbsp; &amp;nbsp; &amp;nbsp; &amp;nbsp; &amp;nbsp; &amp;nbsp; &amp;nbsp; &amp;nbsp; &lt;/span&gt;&lt;span style=&quot;color: #a31515;&quot;&gt;&quot;id&quot;&lt;/span&gt;&lt;span style=&quot;color: #000000;&quot;&gt;: &lt;/span&gt;&lt;span style=&quot;color: #0451a5;&quot;&gt;&quot;string&quot;&lt;/span&gt;&lt;span style=&quot;color: #000000;&quot;&gt;,&lt;/span&gt;&lt;/div&gt;&lt;div style=&quot;line-height: 98%;&quot;&gt;&lt;span style=&quot;color: #000000;&quot;&gt;&amp;nbsp; &amp;nbsp; &amp;nbsp; &amp;nbsp; &amp;nbsp; &amp;nbsp; &amp;nbsp; &amp;nbsp; &lt;/span&gt;&lt;span style=&quot;color: #a31515;&quot;&gt;&quot;name&quot;&lt;/span&gt;&lt;span style=&quot;color: #000000;&quot;&gt;: &lt;/span&gt;&lt;span style=&quot;color: #0451a5;&quot;&gt;&quot;string&quot;&lt;/span&gt;&lt;span style=&quot;color: #000000;&quot;&gt;,&lt;/span&gt;&lt;/div&gt;&lt;div style=&quot;line-height: 98%;&quot;&gt;&lt;span style=&quot;color: #000000;&quot;&gt;&amp;nbsp; &amp;nbsp; &amp;nbsp; &amp;nbsp; &amp;nbsp; &amp;nbsp; &amp;nbsp; &amp;nbsp; &lt;/span&gt;&lt;span style=&quot;color: #a31515;&quot;&gt;&quot;type&quot;&lt;/span&gt;&lt;span style=&quot;color: #000000;&quot;&gt;: &lt;/span&gt;&lt;span style=&quot;color: #098658;&quot;&gt;0&lt;/span&gt;&lt;span style=&quot;color: #000000;&quot;&gt;,&lt;/span&gt;&lt;/div&gt;&lt;div style=&quot;line-height: 98%;&quot;&gt;&lt;span style=&quot;color: #000000;&quot;&gt;&amp;nbsp; &amp;nbsp; &amp;nbsp; &amp;nbsp; &amp;nbsp; &amp;nbsp; &amp;nbsp; &amp;nbsp; &lt;/span&gt;&lt;span style=&quot;color: #a31515;&quot;&gt;&quot;virtualIp&quot;&lt;/span&gt;&lt;span style=&quot;color: #000000;&quot;&gt;: &lt;/span&gt;&lt;span style=&quot;color: #0451a5;&quot;&gt;&quot;string&quot;&lt;/span&gt;&lt;span style=&quot;color: #000000;&quot;&gt;,&lt;/span&gt;&lt;/div&gt;&lt;div style=&quot;line-height: 98%;&quot;&gt;&lt;span style=&quot;color: #000000;&quot;&gt;&amp;nbsp; &amp;nbsp; &amp;nbsp; &amp;nbsp; &amp;nbsp; &amp;nbsp; &amp;nbsp; &amp;nbsp; &lt;/span&gt;&lt;span style=&quot;color: #a31515;&quot;&gt;&quot;mac&quot;&lt;/span&gt;&lt;span style=&quot;color: #000000;&quot;&gt;: &lt;/span&gt;&lt;span style=&quot;color: #0451a5;&quot;&gt;&quot;string&quot;&lt;/span&gt;&lt;span style=&quot;color: #000000;&quot;&gt;,&lt;/span&gt;&lt;/div&gt;&lt;div style=&quot;line-height: 98%;&quot;&gt;&lt;span style=&quot;color: #000000;&quot;&gt;&amp;nbsp; &amp;nbsp; &amp;nbsp; &amp;nbsp; &amp;nbsp; &amp;nbsp; &amp;nbsp; &amp;nbsp; &lt;/span&gt;&lt;span style=&quot;color: #a31515;&quot;&gt;&quot;domain&quot;&lt;/span&gt;&lt;span style=&quot;color: #000000;&quot;&gt;: &lt;/span&gt;&lt;span style=&quot;color: #0451a5;&quot;&gt;&quot;string&quot;&lt;/span&gt;&lt;span style=&quot;color: #000000;&quot;&gt;,&lt;/span&gt;&lt;/div&gt;&lt;div style=&quot;line-height: 98%;&quot;&gt;&lt;span style=&quot;color: #000000;&quot;&gt;&amp;nbsp; &amp;nbsp; &amp;nbsp; &amp;nbsp; &amp;nbsp; &amp;nbsp; &amp;nbsp; &amp;nbsp; &lt;/span&gt;&lt;span style=&quot;color: #a31515;&quot;&gt;&quot;routeName&quot;&lt;/span&gt;&lt;span style=&quot;color: #000000;&quot;&gt;: &lt;/span&gt;&lt;span style=&quot;color: #0451a5;&quot;&gt;&quot;string&quot;&lt;/span&gt;&lt;/div&gt;&lt;div style=&quot;line-height: 98%;&quot;&gt;&lt;span style=&quot;color: #000000;&quot;&gt;&amp;nbsp; &amp;nbsp; &amp;nbsp; &amp;nbsp; &amp;nbsp; &amp;nbsp; }&lt;/span&gt;&lt;/div&gt;&lt;div style=&quot;line-height: 98%;&quot;&gt;&lt;span style=&quot;color: #000000;&quot;&gt;&amp;nbsp; &amp;nbsp; &amp;nbsp; &amp;nbsp; ],&lt;/span&gt;&lt;/div&gt;&lt;div style=&quot;line-height: 98%;&quot;&gt;&lt;span style=&quot;color: #000000;&quot;&gt;&amp;nbsp; &amp;nbsp; &amp;nbsp; &amp;nbsp; &lt;/span&gt;&lt;span style=&quot;color: #a31515;&quot;&gt;&quot;netConfig&quot;&lt;/span&gt;&lt;span style=&quot;color: #000000;&quot;&gt;: {&lt;/span&gt;&lt;/div&gt;&lt;div style=&quot;line-height: 98%;&quot;&gt;&lt;span style=&quot;color: #000000;&quot;&gt;&amp;nbsp; &amp;nbsp; &amp;nbsp; &amp;nbsp; &amp;nbsp; &amp;nbsp; &lt;/span&gt;&lt;span style=&quot;color: #a31515;&quot;&gt;&quot;tunInterface&quot;&lt;/span&gt;&lt;span style=&quot;color: #000000;&quot;&gt;: {&lt;/span&gt;&lt;/div&gt;&lt;div style=&quot;line-height: 98%;&quot;&gt;&lt;span style=&quot;color: #000000;&quot;&gt;&amp;nbsp; &amp;nbsp; &amp;nbsp; &amp;nbsp; &amp;nbsp; &amp;nbsp; &amp;nbsp; &amp;nbsp; &lt;/span&gt;&lt;span style=&quot;color: #a31515;&quot;&gt;&quot;address&quot;&lt;/span&gt;&lt;span style=&quot;color: #000000;&quot;&gt;: &lt;/span&gt;&lt;span style=&quot;color: #0451a5;&quot;&gt;&quot;string&quot;&lt;/span&gt;&lt;span style=&quot;color: #000000;&quot;&gt;,&lt;/span&gt;&lt;/div&gt;&lt;div style=&quot;line-height: 98%;&quot;&gt;&lt;span style=&quot;color: #000000;&quot;&gt;&amp;nbsp; &amp;nbsp; &amp;nbsp; &amp;nbsp; &amp;nbsp; &amp;nbsp; &amp;nbsp; &amp;nbsp; &lt;/span&gt;&lt;span style=&quot;color: #a31515;&quot;&gt;&quot;listenPort&quot;&lt;/span&gt;&lt;span style=&quot;color: #000000;&quot;&gt;: &lt;/span&gt;&lt;span style=&quot;color: #098658;&quot;&gt;0&lt;/span&gt;&lt;span style=&quot;color: #000000;&quot;&gt;,&lt;/span&gt;&lt;/div&gt;&lt;div style=&quot;line-height: 98%;&quot;&gt;&lt;span style=&quot;color: #000000;&quot;&gt;&amp;nbsp; &amp;nbsp; &amp;nbsp; &amp;nbsp; &amp;nbsp; &amp;nbsp; &amp;nbsp; &amp;nbsp; &lt;/span&gt;&lt;span style=&quot;color: #a31515;&quot;&gt;&quot;privateKey&quot;&lt;/span&gt;&lt;span style=&quot;color: #000000;&quot;&gt;: &lt;/span&gt;&lt;span style=&quot;color: #0451a5;&quot;&gt;&quot;string&quot;&lt;/span&gt;&lt;/div&gt;&lt;div style=&quot;line-height: 98%;&quot;&gt;&lt;span style=&quot;color: #000000;&quot;&gt;&amp;nbsp; &amp;nbsp; &amp;nbsp; &amp;nbsp; &amp;nbsp; &amp;nbsp; },&lt;/span&gt;&lt;/div&gt;&lt;div style=&quot;line-height: 98%;&quot;&gt;&lt;span style=&quot;color: #000000;&quot;&gt;&amp;nbsp; &amp;nbsp; &amp;nbsp; &amp;nbsp; &amp;nbsp; &amp;nbsp; &lt;/span&gt;&lt;span style=&quot;color: #a31515;&quot;&gt;&quot;peers&quot;&lt;/span&gt;&lt;span style=&quot;color: #000000;&quot;&gt;: [&lt;/span&gt;&lt;/div&gt;&lt;div style=&quot;line-height: 98%;&quot;&gt;&lt;span style=&quot;color: #000000;&quot;&gt;&amp;nbsp; &amp;nbsp; &amp;nbsp; &amp;nbsp; &amp;nbsp; &amp;nbsp; &amp;nbsp; &amp;nbsp; {&lt;/span&gt;&lt;/div&gt;&lt;div style=&quot;line-height: 98%;&quot;&gt;&lt;span style=&quot;color: #000000;&quot;&gt;&amp;nbsp; &amp;nbsp; &amp;nbsp; &amp;nbsp; &amp;nbsp; &amp;nbsp; &amp;nbsp; &amp;nbsp; &amp;nbsp; &amp;nbsp; &lt;/span&gt;&lt;span style=&quot;color: #a31515;&quot;&gt;&quot;endPoint&quot;&lt;/span&gt;&lt;span style=&quot;color: #000000;&quot;&gt;: &lt;/span&gt;&lt;span style=&quot;color: #0451a5;&quot;&gt;&quot;string&quot;&lt;/span&gt;&lt;span style=&quot;color: #000000;&quot;&gt;,&lt;/span&gt;&lt;/div&gt;&lt;div style=&quot;line-height: 98%;&quot;&gt;&lt;span style=&quot;color: #000000;&quot;&gt;&amp;nbsp; &amp;nbsp; &amp;nbsp; &amp;nbsp; &amp;nbsp; &amp;nbsp; &amp;nbsp; &amp;nbsp; &amp;nbsp; &amp;nbsp; &lt;/span&gt;&lt;span style=&quot;color: #a31515;&quot;&gt;&quot;publicKey&quot;&lt;/span&gt;&lt;span style=&quot;color: #000000;&quot;&gt;: &lt;/span&gt;&lt;span style=&quot;color: #0451a5;&quot;&gt;&quot;string&quot;&lt;/span&gt;&lt;span style=&quot;color: #000000;&quot;&gt;,&lt;/span&gt;&lt;/div&gt;&lt;div style=&quot;line-height: 98%;&quot;&gt;&lt;span style=&quot;color: #000000;&quot;&gt;&amp;nbsp; &amp;nbsp; &amp;nbsp; &amp;nbsp; &amp;nbsp; &amp;nbsp; &amp;nbsp; &amp;nbsp; &amp;nbsp; &amp;nbsp; &lt;/span&gt;&lt;span style=&quot;color: #a31515;&quot;&gt;&quot;allowedIps&quot;&lt;/span&gt;&lt;span style=&quot;color: #000000;&quot;&gt;: &lt;/span&gt;&lt;span style=&quot;color: #0451a5;&quot;&gt;&quot;string&quot;&lt;/span&gt;&lt;/div&gt;&lt;div style=&quot;line-height: 98%;&quot;&gt;&lt;span style=&quot;color: #000000;&quot;&gt;&amp;nbsp; &amp;nbsp; &amp;nbsp; &amp;nbsp; &amp;nbsp; &amp;nbsp; &amp;nbsp; &amp;nbsp; }&lt;/span&gt;&lt;/div&gt;&lt;div style=&quot;line-height: 98%;&quot;&gt;&lt;span style=&quot;color: #000000;&quot;&gt;&amp;nbsp; &amp;nbsp; &amp;nbsp; &amp;nbsp; &amp;nbsp; &amp;nbsp; ],&lt;/span&gt;&lt;/div&gt;&lt;div style=&quot;line-height: 98%;&quot;&gt;&lt;span style=&quot;color: #000000;&quot;&gt;&amp;nbsp; &amp;nbsp; &amp;nbsp; &amp;nbsp; &amp;nbsp; &amp;nbsp; &lt;/span&gt;&lt;span style=&quot;color: #a31515;&quot;&gt;&quot;dns&quot;&lt;/span&gt;&lt;span style=&quot;color: #000000;&quot;&gt;: &lt;/span&gt;&lt;span style=&quot;color: #0451a5;&quot;&gt;&quot;string&quot;&lt;/span&gt;&lt;span style=&quot;color: #000000;&quot;&gt;,&lt;/span&gt;&lt;/div&gt;&lt;div style=&quot;line-height: 98%;&quot;&gt;&lt;span style=&quot;color: #000000;&quot;&gt;&amp;nbsp; &amp;nbsp; &amp;nbsp; &amp;nbsp; &amp;nbsp; &amp;nbsp; &lt;/span&gt;&lt;span style=&quot;color: #a31515;&quot;&gt;&quot;useExit&quot;&lt;/span&gt;&lt;span style=&quot;color: #000000;&quot;&gt;: &lt;/span&gt;&lt;span style=&quot;color: #0451a5;&quot;&gt;true&lt;/span&gt;&lt;span style=&quot;color: #000000;&quot;&gt;,&lt;/span&gt;&lt;/div&gt;&lt;div style=&quot;line-height: 98%;&quot;&gt;&lt;span style=&quot;color: #000000;&quot;&gt;&amp;nbsp; &amp;nbsp; &amp;nbsp; &amp;nbsp; &amp;nbsp; &amp;nbsp; &lt;/span&gt;&lt;span style=&quot;color: #a31515;&quot;&gt;&quot;exitIp&quot;&lt;/span&gt;&lt;span style=&quot;color: #000000;&quot;&gt;: &lt;/span&gt;&lt;span style=&quot;color: #0451a5;&quot;&gt;&quot;string&quot;&lt;/span&gt;&lt;/div&gt;&lt;div style=&quot;line-height: 98%;&quot;&gt;&lt;span style=&quot;color: #000000;&quot;&gt;&amp;nbsp; &amp;nbsp; &amp;nbsp; &amp;nbsp; },&lt;/span&gt;&lt;/div&gt;&lt;div style=&quot;line-height: 98%;&quot;&gt;&lt;span style=&quot;color: #000000;&quot;&gt;&amp;nbsp; &amp;nbsp; &amp;nbsp; &amp;nbsp; &lt;/span&gt;&lt;span style=&quot;color: #a31515;&quot;&gt;&quot;hosts&quot;&lt;/span&gt;&lt;span style=&quot;color: #000000;&quot;&gt;: [&lt;/span&gt;&lt;/div&gt;&lt;div style=&quot;line-height: 98%;&quot;&gt;&lt;span style=&quot;color: #000000;&quot;&gt;&amp;nbsp; &amp;nbsp; &amp;nbsp; &amp;nbsp; &amp;nbsp; &amp;nbsp; {&lt;/span&gt;&lt;/div&gt;&lt;div style=&quot;line-height: 98%;&quot;&gt;&lt;span style=&quot;color: #000000;&quot;&gt;&amp;nbsp; &amp;nbsp; &amp;nbsp; &amp;nbsp; &amp;nbsp; &amp;nbsp; &amp;nbsp; &amp;nbsp; &lt;/span&gt;&lt;span style=&quot;color: #a31515;&quot;&gt;&quot;ip&quot;&lt;/span&gt;&lt;span style=&quot;color: #000000;&quot;&gt;: &lt;/span&gt;&lt;span style=&quot;color: #0451a5;&quot;&gt;&quot;string&quot;&lt;/span&gt;&lt;span style=&quot;color: #000000;&quot;&gt;,&lt;/span&gt;&lt;/div&gt;&lt;div style=&quot;line-height: 98%;&quot;&gt;&lt;span style=&quot;color: #000000;&quot;&gt;&amp;nbsp; &amp;nbsp; &amp;nbsp; &amp;nbsp; &amp;nbsp; &amp;nbsp; &amp;nbsp; &amp;nbsp; &lt;/span&gt;&lt;span style=&quot;color: #a31515;&quot;&gt;&quot;domain&quot;&lt;/span&gt;&lt;span style=&quot;color: #000000;&quot;&gt;: &lt;/span&gt;&lt;span style=&quot;color: #0451a5;&quot;&gt;&quot;string&quot;&lt;/span&gt;&lt;/div&gt;&lt;div style=&quot;line-height: 98%;&quot;&gt;&lt;span style=&quot;color: #000000;&quot;&gt;&amp;nbsp; &amp;nbsp; &amp;nbsp; &amp;nbsp; &amp;nbsp; &amp;nbsp; }&lt;/span&gt;&lt;/div&gt;&lt;div style=&quot;line-height: 98%;&quot;&gt;&lt;span style=&quot;color: #000000;&quot;&gt;&amp;nbsp; &amp;nbsp; &amp;nbsp; &amp;nbsp; ]&lt;/span&gt;&lt;/div&gt;&lt;div style=&quot;line-height: 98%;&quot;&gt;&lt;span style=&quot;color: #000000;&quot;&gt;&amp;nbsp; &amp;nbsp; }&lt;/span&gt;&lt;/div&gt;&lt;div style=&quot;line-height: 98%;&quot;&gt;&lt;span style=&quot;color: #000000;&quot;&gt;}&lt;/span&gt;&lt;/div&gt;&lt;/div&gt;" style="text;whiteSpace=wrap;html=1;" vertex="1" parent="1">
          <mxGeometry x="568.57" y="1814" width="290" height="390" as="geometry" />
        </mxCell>
        <mxCell id="G6anzaDU-rw7UNGZQOBu-25" value="Reponse body" style="text;html=1;align=center;verticalAlign=middle;whiteSpace=wrap;rounded=0;" vertex="1" parent="1">
          <mxGeometry x="568.57" y="1800" width="80" height="30" as="geometry" />
        </mxCell>
        <mxCell id="G6anzaDU-rw7UNGZQOBu-26" value="跳转到资源展示界面" style="rounded=0;whiteSpace=wrap;html=1;" vertex="1" parent="1">
          <mxGeometry x="100" y="2140" width="120" height="60" as="geometry" />
        </mxCell>
        <mxCell id="G6anzaDU-rw7UNGZQOBu-28" value="Reponse body" style="text;html=1;align=center;verticalAlign=middle;whiteSpace=wrap;rounded=0;" vertex="1" parent="1">
          <mxGeometry x="300.00000000000006" y="1600" width="80" height="30" as="geometry" />
        </mxCell>
      </root>
    </mxGraphModel>
  </diagram>
  <diagram id="0xfL93kyFSazmnclUEZl" name="第 2 页">
    <mxGraphModel dx="2261" dy="738" grid="1" gridSize="10" guides="1" tooltips="1" connect="1" arrows="1" fold="1" page="1" pageScale="1" pageWidth="827" pageHeight="1169" math="0" shadow="0">
      <root>
        <mxCell id="0" />
        <mxCell id="1" parent="0" />
        <mxCell id="3J21DWK19sK1ehpJEsYu-18" style="edgeStyle=orthogonalEdgeStyle;rounded=0;orthogonalLoop=1;jettySize=auto;html=1;entryX=0;entryY=0.5;entryDx=0;entryDy=0;" edge="1" parent="1" source="3J21DWK19sK1ehpJEsYu-3" target="3J21DWK19sK1ehpJEsYu-4">
          <mxGeometry relative="1" as="geometry" />
        </mxCell>
        <mxCell id="3J21DWK19sK1ehpJEsYu-3" value="Route A" style="rounded=1;whiteSpace=wrap;html=1;" vertex="1" parent="1">
          <mxGeometry x="40" y="490" width="120" height="60" as="geometry" />
        </mxCell>
        <mxCell id="3J21DWK19sK1ehpJEsYu-4" value="Route B" style="rounded=1;whiteSpace=wrap;html=1;" vertex="1" parent="1">
          <mxGeometry x="470" y="490" width="120" height="60" as="geometry" />
        </mxCell>
        <mxCell id="3J21DWK19sK1ehpJEsYu-7" value="" style="shape=callout;whiteSpace=wrap;html=1;perimeter=calloutPerimeter;" vertex="1" parent="1">
          <mxGeometry x="-150" y="450" width="170" height="190" as="geometry" />
        </mxCell>
        <mxCell id="3J21DWK19sK1ehpJEsYu-8" value="" style="shape=callout;whiteSpace=wrap;html=1;perimeter=calloutPerimeter;" vertex="1" parent="1">
          <mxGeometry x="600" y="430" width="170" height="190" as="geometry" />
        </mxCell>
        <mxCell id="3J21DWK19sK1ehpJEsYu-9" value="Route C" style="rounded=1;whiteSpace=wrap;html=1;" vertex="1" parent="1">
          <mxGeometry x="250" y="660" width="120" height="60" as="geometry" />
        </mxCell>
        <mxCell id="3J21DWK19sK1ehpJEsYu-10" value="10.0.1.0/24" style="text;html=1;align=center;verticalAlign=middle;whiteSpace=wrap;rounded=0;" vertex="1" parent="1">
          <mxGeometry x="60" y="570" width="60" height="30" as="geometry" />
        </mxCell>
        <mxCell id="3J21DWK19sK1ehpJEsYu-11" value="10.0.2.0/24" style="text;html=1;align=center;verticalAlign=middle;whiteSpace=wrap;rounded=0;" vertex="1" parent="1">
          <mxGeometry x="490" y="570" width="60" height="30" as="geometry" />
        </mxCell>
        <mxCell id="3J21DWK19sK1ehpJEsYu-12" value="mac1: 10.0.1.1&lt;div&gt;mac2:10.0.1.2&lt;/div&gt;" style="text;html=1;align=center;verticalAlign=middle;whiteSpace=wrap;rounded=0;" vertex="1" parent="1">
          <mxGeometry x="-130" y="460" width="100" height="30" as="geometry" />
        </mxCell>
        <mxCell id="3J21DWK19sK1ehpJEsYu-13" value="mac1: 10.0.2.1&lt;div&gt;mac2:10.0.2.2&lt;/div&gt;" style="text;html=1;align=center;verticalAlign=middle;whiteSpace=wrap;rounded=0;" vertex="1" parent="1">
          <mxGeometry x="610" y="450" width="100" height="30" as="geometry" />
        </mxCell>
        <mxCell id="3J21DWK19sK1ehpJEsYu-14" value="10.0.3.0/24" style="text;html=1;align=center;verticalAlign=middle;whiteSpace=wrap;rounded=0;" vertex="1" parent="1">
          <mxGeometry x="280" y="730" width="60" height="30" as="geometry" />
        </mxCell>
        <mxCell id="3J21DWK19sK1ehpJEsYu-15" style="edgeStyle=orthogonalEdgeStyle;rounded=0;orthogonalLoop=1;jettySize=auto;html=1;entryX=0.867;entryY=1;entryDx=0;entryDy=0;entryPerimeter=0;" edge="1" parent="1" source="3J21DWK19sK1ehpJEsYu-9" target="3J21DWK19sK1ehpJEsYu-3">
          <mxGeometry relative="1" as="geometry" />
        </mxCell>
        <mxCell id="3J21DWK19sK1ehpJEsYu-17" style="edgeStyle=orthogonalEdgeStyle;rounded=0;orthogonalLoop=1;jettySize=auto;html=1;" edge="1" parent="1" source="3J21DWK19sK1ehpJEsYu-16" target="3J21DWK19sK1ehpJEsYu-4">
          <mxGeometry relative="1" as="geometry" />
        </mxCell>
        <mxCell id="3J21DWK19sK1ehpJEsYu-16" value="Route D" style="rounded=1;whiteSpace=wrap;html=1;" vertex="1" parent="1">
          <mxGeometry x="470" y="270" width="120" height="60" as="geometry" />
        </mxCell>
      </root>
    </mxGraphModel>
  </diagram>
</mxfile>
